<?xml version="1.0" encoding="utf-8" ?>
<svg xmlns="http://www.w3.org/2000/svg" xmlns:xlink="http://www.w3.org/1999/xlink" width="1024" height="1024">
	<g>
		<path fill="#231F20" d="M546.474 59.2778Q547.958 59.1845 549.444 59.1547Q550.93 59.1248 552.416 59.1586Q553.902 59.1922 555.386 59.2894Q556.869 59.3866 558.347 59.547Q559.825 59.7075 561.295 59.9309Q562.764 60.1543 564.223 60.4404Q565.682 60.7264 567.127 61.0745Q568.572 61.4226 570.002 61.8321Q571.431 62.2416 572.841 62.7118Q574.251 63.182 575.64 63.712Q577.029 64.242 578.394 64.8309Q579.759 65.4197 581.097 66.0664Q582.436 66.713 583.745 67.4163Q585.055 68.1195 586.334 68.8781Q587.612 69.6366 588.857 70.4491Q590.102 71.2616 591.311 72.1265C596.955 76.1274 602.272 80.6998 607.641 85.0658C623.107 97.6429 640.885 111.987 651.002 129.428C654.191 134.926 655.969 140.247 657.055 146.488C662.907 143.977 668.901 141.86 675.265 141.152C683.475 140.239 693.119 141.719 699.598 147.174C705.111 151.817 708.699 160.925 708.542 168.131C708.462 171.794 707.606 175.466 707.871 179.124C708.896 179.245 710.419 179.269 711.278 179.848C712.527 180.689 713.823 182.51 714.862 183.627C719.277 188.378 723.421 192.664 724.549 199.399C725.711 206.339 723.551 213.382 719.507 219.024C714.227 226.392 708.059 228.886 699.485 230.368C702.038 234.564 705.93 239.659 705.667 244.809C705.443 249.22 703.135 252.907 699.776 255.664C690.964 262.896 675.938 267.301 664.596 266.077C654.617 265.001 642.828 260.704 636.397 252.607C632.326 253.657 628.278 254.019 624.171 254.821L623.752 255.463C624.3 262.488 627.719 270.745 630.181 277.391C632.195 282.828 639.841 301.316 644.87 303.621C651.198 304.138 658.225 299.053 663.579 296.031C664.342 293.928 665.077 291.106 666.957 289.735C667.962 289.002 669.235 288.739 670.434 289.105C676.522 290.961 680.934 305.248 683.437 310.847C706.082 322.162 722.276 337.478 737.797 357.072C745.773 367.14 753.793 377.523 760.033 388.783C769.832 406.467 776.755 425.097 782.721 444.338C800.487 501.642 806.849 561.359 808.142 621.166C808.331 629.877 807.863 638.904 807.132 647.59C806.785 651.705 805.952 656.014 805.965 660.131C805.968 661.134 806.167 661.778 806.673 662.66C810.318 663.936 816.221 658.377 820.256 657.445C821.683 657.116 823.234 657.108 824.452 658.047C825.462 658.825 826.294 660.337 826.413 661.605C826.753 665.246 818.402 674.659 815.868 677.59C819.807 679.77 827.281 682.118 829.802 685.855C830.392 686.729 830.56 687.507 830.263 688.553C828.145 696.022 815.692 689.916 810.433 692.784C808.941 695.147 810.091 697.061 811.412 699.231C829.979 729.737 835.421 818.842 836.378 856.959C836.779 872.93 835.685 888.78 836.606 904.735C836.866 909.226 837.194 915.76 833.957 919.268C830.756 922.737 823.083 924.209 818.579 924.926C805.701 926.975 792.744 927.104 779.769 927.827C761.369 928.851 743.157 929.994 724.731 930.535C722.384 930.604 720.097 931.095 717.737 931.17C707.778 931.487 697.802 931.465 687.847 931.884C667.2 932.751 646.535 933.992 625.873 934.43C620.309 934.548 594.4 935.588 591.059 932.383C593.387 927.251 632.006 917.62 639.626 912.055C641.349 910.797 642.095 909.476 642.757 907.487C645.135 900.335 645.447 891.82 646.369 884.355C648.069 870.584 649.702 856.712 650.724 842.876C651.706 829.583 652.033 816.19 653.99 802.992C647.281 798.538 640.679 793.89 632.981 791.343L630.104 794.706C635.768 796.127 644.514 797.215 648.889 801.053C649.369 803.03 649.294 805.068 649.127 807.083C647.8 823.117 645.214 839.124 643.398 855.116C641.866 868.6 641.162 882.313 639.271 895.731C638.753 899.41 638.234 905.328 636.486 908.544C635.693 910.003 633.92 910.828 632.457 911.441C625.517 914.345 617.565 915.821 610.423 918.423C588.305 926.481 566.247 933.885 543.809 941.01C534.554 943.949 525.347 947.164 516.001 949.797C503.523 953.314 490.932 956.002 478.253 958.634C473.513 959.618 468.454 961.299 463.593 961.184C440.761 960.643 400.29 942.57 378.51 932.883C366.728 927.642 354.815 922.747 343.549 916.443C333.503 910.822 291.206 887.303 289.47 877.424C289.255 876.201 289.391 875.076 290.257 874.121C291.688 872.543 293.541 872.508 295.512 872.42L296.177 872.397C298.996 856.794 300.965 841.178 303.096 825.475C303.979 818.972 305.355 812.517 306.055 805.994C307.297 794.42 307.412 782.469 309.043 770.989C309.291 769.247 309.857 768.09 310.912 766.707C312.641 766.302 313.551 766.92 314.835 768.077C317.262 770.263 319.268 773.08 321.856 775.05C325.172 777.574 341.867 783.088 347.161 785.098Q389.596 800.894 433.167 813.218C444.899 816.504 456.991 820.288 469.133 821.616C477.134 822.49 485.544 820.399 493.585 819.886C498.38 819.58 503.19 819.67 507.984 819.341C527.021 818.034 546.369 816.037 565.248 813.268C571.805 812.307 578.275 810.705 584.782 809.459C594.479 807.603 604.3 806.06 614.067 804.6C618.138 803.991 630.649 804.339 633.297 802.227C632.47 801.379 589.996 789.895 585.026 788.556C582.285 789.494 583.832 804.45 580.37 808.163C579.881 808.688 579.2 809.079 578.474 809.05C576.114 808.957 574.329 807.294 572.865 805.619C572.727 805.461 572.593 805.299 572.457 805.138C566.757 805.722 561.092 806.326 555.468 807.449C548.353 808.87 541.33 810.922 534.182 812.145C531.058 812.679 526.956 813.413 524.246 811.471C523.817 809.983 524.115 809.374 524.483 807.895C527.702 798.617 530.546 789.258 534.083 780.089C529.702 786.91 526.273 793.917 523.011 801.311C521.009 805.849 519.221 810.836 516.593 815.034C516.144 815.75 515.616 816.703 514.72 816.797C512.974 816.979 511.504 815.974 510.242 814.896C510.087 813.748 510.273 812.903 510.714 811.85C511.854 809.128 513.567 806.609 514.842 803.933C517.414 798.534 519.623 792.965 522.576 787.752C524.891 783.666 527.534 779.775 530.157 775.883C517.914 773.142 505.644 769.346 494.149 764.262C489.592 762.246 485.348 759.239 480.606 757.673C474.822 755.762 468.519 755.43 462.519 754.565C454.904 753.467 447.326 752.219 439.696 751.203C436.635 750.795 434.26 751.976 431.291 752.101C426.012 752.322 420.566 751.991 415.272 751.922C415.449 753.591 417.999 766.402 417.676 766.828C415.307 769.953 388.655 774.713 382.84 775.5C377.368 776.24 371.849 776.262 366.403 777.253L365.607 777.401C361.601 775.326 359.19 773.524 356.528 769.859C356.782 767.429 357.318 765.069 357.824 762.682C351.862 764.057 326.86 770.365 322.54 769.725L321.961 768.743L322.502 767.819C326.514 765.286 353.927 757.306 359.109 757.241C362.081 750.829 365.428 735.116 371.645 731.401C375.803 728.916 406.348 724.363 410.253 726.223C411.406 726.772 413.427 743.717 414.013 746.186C420.184 744.926 426.521 743.496 432.851 743.522C443.24 743.566 455.541 747.787 466.142 749.219C461.699 744.646 455.858 741.271 450.664 737.607C445.874 734.229 441.42 730.572 437.109 726.605C416.449 707.598 400.108 685.418 386.448 660.968C382.779 654.401 379.959 647.358 376.236 640.858C375.213 639.071 374.14 637.503 372.003 637.014C371.048 636.795 370.818 636.63 369.971 637.186C369.619 641.894 371.655 646.547 371.489 651.731C369.074 654.714 366.312 657.333 362.651 658.686C354.382 661.744 344.363 661.633 335.681 662.528C325.69 663.559 315.735 664.95 305.742 665.936C298.299 666.671 290.817 666.909 283.38 667.744C273.458 668.858 263.437 671.532 253.466 671.801C250.218 671.888 247.211 671.494 244.295 669.999C230.508 662.929 225.577 633.224 220.956 619.363C218.853 619.505 216.303 619.684 214.309 618.931C210.675 617.559 207.273 613.42 205.584 610.04C202.912 604.691 202.859 598.149 201.441 592.392C198.965 582.34 190.867 566.365 184.747 557.859C175.506 545.017 162.401 534.199 150.665 523.644C143.398 517.108 122.804 501.178 119.443 492.862Q119.134 492.098 118.902 491.307Q118.669 490.516 118.514 489.707Q118.359 488.897 118.283 488.077Q118.208 487.256 118.212 486.432Q118.217 485.607 118.301 484.788Q118.386 483.968 118.55 483.16Q118.713 482.352 118.955 481.564Q119.196 480.776 119.513 480.015C122.905 471.926 131.552 464.361 139.667 461.263C148.176 458.014 154.986 460.896 162.815 464.259C159.352 455.697 151.591 434.459 146.595 427.543C150.848 422.175 153.574 414.459 159.161 410.338C164.399 406.475 172.734 405.062 178.954 403.213Q187.774 400.521 196.743 398.38Q205.713 396.238 214.798 394.655Q223.882 393.072 233.047 392.053Q242.212 391.034 251.423 390.584C258.516 390.306 265.715 390.42 272.813 390.569C277.832 390.674 283.263 391.213 288.223 390.358C290.108 390.034 291.888 389.018 293.569 388.143C300.922 397.881 308.013 423.917 311.494 436.004C314.61 434.203 318.07 431.385 321.459 430.308C325.162 429.132 329.589 428.88 333.429 428.233C355.849 424.458 378.54 423.024 401.261 422.501C407.535 422.356 413.796 421.987 420.074 422.13C422.779 428.035 425.168 434.061 428.14 439.845C434.74 452.692 442.239 465.144 448.585 478.109Q452.972 487.226 456.922 496.54Q460.872 505.854 464.376 515.345Q467.881 524.835 470.932 534.481Q473.984 544.127 476.575 553.907C477.446 557.183 480.69 562.864 480.119 566.131C479.961 567.033 479.861 567.515 479.133 568.064C474.171 571.806 437.292 574.797 430.823 574.171Q433.163 579.609 435.954 584.83Q438.746 590.051 441.969 595.018Q445.191 599.984 448.823 604.66Q452.454 609.337 456.467 613.689C471.128 598.694 485.244 581.776 494.86 563.051C491.739 561.33 489.068 559.852 486.91 556.92C489.716 551.768 494.223 548.724 497.865 544.245C503.729 537.034 508.8 529.519 513.688 521.625C516.943 516.37 520.216 511.148 522.885 505.561C526.666 497.645 529.568 489.272 533.138 481.247L556.387 429.96C559.576 422.974 564.753 416.998 567.79 409.971C569.5 406.013 570.279 401.682 570.936 397.447C567.551 395.099 562.66 392.446 560.704 388.736C559.513 386.477 560.105 384.068 560.783 381.74C562.881 374.543 573.619 350.123 579.94 346.592C581.106 345.941 581.922 345.488 582.819 344.511L582.58 344.03C578.375 344.7 574.101 346.924 570.06 348.33C562.858 350.836 556.607 351.405 549.08 351.799C525.832 353.016 497.744 351.874 479.733 335.47C472.97 329.31 466.95 321.65 462.603 313.599C447.382 285.406 440.019 235.728 438.748 203.527C438.307 192.355 439.623 181.12 439.045 169.972L439.001 169.183C435.267 170.815 427.84 175.001 423.954 173.962C420.1 172.931 424.431 167.41 423.007 165.924C422.195 165.077 416.128 163.034 414.551 162.261C399.594 154.933 381.472 144.495 374.394 128.737C369.403 117.626 367.04 103.197 371.762 91.5721C373.809 86.5334 377.083 83.4445 382.033 81.283C404.97 71.2676 450.085 81.171 472.564 90.1607C484.455 79.4928 506.592 67.7475 521.829 63.2292Q527.844 61.4797 534.029 60.488Q540.214 59.4964 546.474 59.2778ZM651.497 344.182C647.673 361.83 642.194 378.915 638.992 396.735C637.478 405.158 637.243 413.663 636.342 422.152C635.788 427.373 634.197 434.184 635.21 439.31C636.678 437.16 637.04 433.842 637.97 431.357C640.411 424.835 643.049 418.263 645.651 411.805C649.856 401.369 678.3 341.373 687.05 339.324C688.204 339.776 688.193 339.848 688.834 340.923C689.079 343.501 680.06 356.381 678.076 359.566C669.764 372.907 662.503 387.214 656.174 401.605Q646.892 422.918 639.719 445.031C637.778 451.17 636.267 457.438 634.307 463.57C630.509 475.452 626.359 487.266 622.317 499.069C616.522 515.992 608.989 532.29 602.924 549.132C599.2 559.473 596.606 570.609 593.954 581.282C591.59 590.796 588.87 600.791 587.697 610.522C594.828 610.591 602.077 610.874 609.011 612.679C633.848 619.146 656.978 634.763 677.422 649.697C683.435 654.089 689.755 658.295 694.991 663.62L695.608 664.252C697.385 658.483 698.709 652.649 700.297 646.835C710.821 608.306 717.871 571.41 723.229 531.831C724.991 518.816 727.272 505.473 728.106 492.378C735.233 436.381 731.474 420.774 734.653 418.284C735.607 417.536 736.258 417.301 737.425 417.035C738.663 417.395 738.651 417.418 739.39 418.481C739.71 423.141 738.506 428.079 738.068 432.732L735.884 457.065C734.453 472.343 733.58 487.644 731.978 502.921Q728.628 537.132 722.721 570.994Q716.813 604.857 708.381 638.181C705.632 648.631 703.84 659.725 699.528 669.654L692.939 671.93L688.435 668.876C684.398 678.306 679.658 687.421 675.589 696.827C688.247 696.587 700.608 695.483 713.152 693.782C726.995 691.905 789.007 680.672 797.059 672.907C799.858 666.181 799.22 626.253 798.862 617.561C798.338 604.827 798.648 592.056 797.962 579.308C795.008 524.443 786.301 469.909 765.193 418.896C749.275 380.422 718.735 339.257 681.21 319.828C676.248 325.629 671.362 330.289 664.99 334.584C660.411 337.669 655.353 340.165 651.497 344.182ZM311.38 479.572C319.104 479.957 326.74 480.506 334.34 482.046C344.109 484.025 371.532 492.832 378.267 500.209C379.274 501.312 379.68 502.225 379.59 503.749C378.855 504.994 378.953 505.073 377.588 505.482C372.154 504.519 365.996 501.13 360.81 499.025C340.514 490.789 320.297 483.872 298.076 487.711C293.985 488.418 287.533 489.021 284.039 491.398C283.11 492.03 282.895 492.403 282.446 493.385C283.044 495.31 284.151 496.097 285.916 497.009C295.035 501.721 312.585 505.901 322.89 507.3C330.587 508.345 338.916 508.7 346.275 511.275C348.986 512.223 352.199 513.748 353.089 516.747C353.48 518.062 353.067 518.958 352.518 520.12C351.435 520.963 350.5 521.357 349.112 521.178C346.997 520.906 344.797 519.553 342.748 518.874C340.346 518.077 337.788 517.568 335.318 517.031C324.283 514.632 312.925 513.799 301.823 511.492C292.697 509.595 283.794 506.146 274.699 504.466C272.759 504.108 270.401 503.645 268.64 504.647C269.095 506.338 270.771 507.948 271.867 509.311C278.253 517.259 285.13 521.745 293.912 526.78C303.598 532.334 314.424 533.789 325.018 536.569C329.423 537.725 333.725 539.347 338.165 540.348C341.845 541.178 345.581 541.502 349.193 542.632C350.163 545.33 351.481 547.905 352.344 550.63C355.657 561.098 358.221 571.827 361.837 582.202C379.299 632.293 403.334 684.903 443.81 720.555C449.483 725.552 456.054 729.677 462.192 734.083C473.629 742.293 485.938 751.461 498.694 757.426C510.064 762.743 522.246 766.999 534.69 768.955C542.267 762.301 550.756 759.843 560.771 760.542C567.582 761.018 576.82 764.264 581.326 769.661C581.852 770.292 582.321 770.965 582.776 771.647Q583.492 777.562 583.8 783.512C593.242 782.874 612.516 789.325 622.642 791.547C635.279 783.131 645.686 751.142 651.678 736.788C656.207 725.94 660.946 715.128 665.711 704.381C671.41 691.526 677.729 678.535 684.757 666.356C664.676 649.461 633.103 628.714 608.025 620.997C603.893 619.725 599.692 619.232 595.477 618.362C592.975 617.846 590.132 616.281 587.645 616.281C586.653 620.922 585.806 625.773 584.338 630.283C582.087 637.197 565.983 675.171 562.55 679.081C562.379 679.276 562.214 679.476 562.041 679.669C561.937 679.785 561.826 679.896 561.719 680.009C570.809 685.697 586.006 692.183 589.077 703.735C589.495 705.305 589.445 706.842 588.557 708.255C588.035 709.087 586.788 710.278 585.789 710.378C584.335 710.525 582.978 710.447 581.911 709.429C577.88 705.58 578.245 700.779 571.887 695.663C565.339 690.394 550.67 682.526 542.839 678.213C510.358 660.324 470.257 642.085 445.955 613.599C436.13 602.082 428.474 586.955 423.028 572.9C416.028 554.832 404.324 505.97 392.274 494.669C388.588 491.213 383.746 488.604 379.067 486.773C369.304 482.952 343 477.703 332.711 477.643Q331.103 477.637 329.496 477.714C323.574 478.267 317.142 478.175 311.38 479.572ZM467.076 291.426L461.557 290.795C463.832 304.219 477.543 325.912 488.823 333.94C505.232 345.62 541.273 347.196 560.447 343.741C569.119 342.178 576.943 335.391 585.902 336.133C586.839 337.175 587.513 337.862 587.519 339.347C587.527 341.168 586.702 343.059 587.001 344.872C587.949 350.617 593.488 370.154 596.284 374.54C598.959 370.137 601.509 365.073 603.227 360.208C605.721 353.139 606.804 346.86 611.663 340.787C617.721 333.214 627.092 326.108 635.081 320.621C637.757 318.784 645.972 314.569 647.342 312.761L647.164 312.915C647.013 312.907 646.862 312.896 646.711 312.891C642.787 312.767 641.278 312.823 638.387 309.672C635.981 307.049 634.385 303.382 632.648 300.27C626.417 289.102 622.341 277.877 618.923 265.596C617.598 260.838 616.794 255.436 614.893 250.908C613.572 247.762 610.763 244.643 608.536 242.078C601.658 245.217 596.599 246.691 589.236 243.778C587.557 243.114 585.547 242.01 584.883 240.214C584.44 239.016 584.691 237.897 585.383 236.87C585.945 236.034 586.878 235.639 587.874 235.547C589.828 235.367 591.985 235.986 593.902 236.335C601.135 237.655 605.695 234.52 610.485 229.365C617.076 222.271 619.41 214.111 618.986 204.54Q618.958 203.838 618.895 203.138Q618.832 202.438 618.734 201.742Q618.635 201.046 618.502 200.356Q618.369 199.666 618.201 198.984Q618.033 198.302 617.831 197.629Q617.629 196.956 617.393 196.294Q617.158 195.632 616.889 194.982Q616.62 194.333 616.319 193.698Q616.018 193.063 615.685 192.444Q615.353 191.825 614.989 191.224Q614.626 190.622 614.232 190.04Q613.839 189.458 613.417 188.896Q612.995 188.334 612.545 187.794Q612.095 187.254 611.619 186.738Q611.142 186.221 610.64 185.73Q610.138 185.238 609.612 184.772C605.423 181.133 599.505 178.812 593.906 179.332C578.571 180.756 566.745 210.128 557.049 212.076C554.106 212.667 550.776 210.464 548.594 208.754C536.245 199.076 517.267 162.277 515.261 146.82C514.967 144.553 515.385 143.518 516.655 141.635L517.308 141.606C519.398 156.548 538.646 194.772 550.603 203.46C552.05 204.512 552.901 205.155 554.678 205.185C555.723 204.437 555.957 204.36 556.404 203.178C555.992 202.373 555.658 201.904 555.037 201.233C554.359 200.5 554.064 199.983 553.671 199.081C553.372 198.802 553.212 198.679 552.963 198.303C546.731 188.899 536.939 152.29 535.539 140.356C535.289 138.224 535.522 136.133 535.76 134.012L534.991 132.456C533.488 131.958 505.268 140.625 502.171 142.196C498.595 144.009 495.067 146.013 491.389 147.606C486.375 149.778 481.165 151.475 476.193 153.749C470.953 156.146 465.982 159.04 460.804 161.554C457.072 163.365 452.681 164.721 449.272 167.066C448.171 167.823 447.508 168.628 447.075 169.886C445.565 174.269 446.448 180.491 446.342 185.182C445.86 206.435 446.959 227.572 451.064 248.473C453.091 258.795 455.936 268.96 458.451 279.169C459.79 280.027 461.119 280.934 462.488 281.742C464.841 281.671 467.546 281.778 469.78 280.973C473.763 279.539 477.109 273.613 481.694 275.725C482.327 277.187 482.315 278.13 481.75 279.637C479.61 285.34 474.076 288.534 468.763 290.761Q467.928 291.116 467.076 291.426ZM628.983 904.359C631.279 897.656 632.8 890.623 634.125 883.666C635.932 874.184 645.496 813.401 643.197 809.067C643.131 808.943 643.032 808.841 642.949 808.728C642.451 808.709 641.846 808.619 641.36 808.715C623.116 811.43 604.847 813.637 586.59 816.197C569.58 818.583 552.59 821.346 535.514 823.182L490.591 827.83C486.755 828.192 479.069 827.918 475.774 828.869C473.772 834.159 475.219 847.455 475.122 853.686Q474.945 862.324 474.326 870.941Q472.235 897.674 468.161 924.178C467.361 929.324 466.609 934.482 465.645 939.6C464.836 943.896 463.473 948.577 463.421 952.943L464.044 953.661C476.749 951.185 489.521 948.965 502.079 945.795C513.427 942.931 524.466 939.232 535.645 935.809Q582.763 921.415 628.983 904.359ZM455.281 951.418C459.776 932.77 462.201 914.209 465.274 895.334C438.49 891.104 407.817 886.575 382.446 877.359C374.615 874.515 366.734 870.675 359.249 867.001C350.884 863.144 319.344 851.538 315.069 846.196C315.104 844.912 315.175 845.153 315.998 844.296C316.961 844.045 317.402 844.074 318.382 844.353C322.096 845.411 326.024 847.55 329.606 849.091C337.982 852.694 346.54 856.457 355.119 859.537C361.45 861.809 367.634 864.495 373.953 866.705C387.169 871.328 400.619 875.917 414.14 879.561C423.033 881.957 432.147 883.76 441.144 885.749C449.236 887.537 457.375 889.499 465.564 890.775C467.353 874.787 468.038 859.4 468.012 843.315C468.004 838.392 468.436 833.014 467.733 828.148C464.287 826.339 459.676 825.833 455.877 824.979C446.941 822.968 437.771 821.27 428.935 818.891C420.469 816.612 411.88 814.487 403.542 811.787C390.181 807.46 377.101 802.232 363.806 797.7C347.051 791.989 329.978 787.311 314.204 779.083C312.061 790.041 311.853 801.774 310.836 812.907C308.795 835.245 306.655 857.842 303.301 880.019C320.938 895.612 346.768 907.84 367.834 918.294C382.902 925.771 397.767 933.389 413.553 939.3Q423.732 943.141 434.18 946.175Q444.628 949.209 455.281 951.418ZM479.152 94.216L479.686 94.476C485.021 97.0115 490.789 98.7002 496.29 100.851C503.34 103.607 510.54 107.084 517.194 110.682C546.654 126.61 572.333 147.644 598.448 168.399C605.624 174.102 613.356 178.433 619.303 185.607C621.303 188.021 622.775 191.719 623.838 194.657C627.309 204.243 627.655 216.723 623.28 226.08C621.208 230.51 618.303 233.885 614.568 237.019C618.075 242.792 621.69 246.152 628.126 248.532C631.357 247.518 634.39 246.263 637.479 244.878C644.21 253.131 652.987 258.235 663.686 259.363C674.156 260.466 687.329 257.407 695.583 250.684C697.34 249.252 699.224 247.326 699.358 244.93C699.618 240.305 695.788 234.06 693.659 230.077C688.19 229.737 673.601 229.183 669.468 226.12L669.16 225.065C669.828 224.105 670.346 223.83 671.496 223.66C672.561 223.502 673.797 223.48 674.875 223.519C686.573 224.087 701.945 228.789 711.613 219.768C716.014 215.662 718.907 208.724 718.971 202.696C719.026 197.561 716.854 194.05 715.099 189.516C712.817 187.881 709.312 184.557 706.536 184.295C703.256 185.193 701.298 188.751 698.691 190.772C694.054 194.366 681.76 199.78 676.17 196.849C675.364 196.426 675.153 195.823 674.678 195.084C674.613 193.581 674.664 193.286 675.332 191.94C677.237 190.879 679.881 190.806 682.005 190.317C691.163 188.212 698.101 182.919 700.754 173.604C702.256 168.33 700.337 162.465 697.665 157.844C694.962 153.173 690.63 150.075 685.368 148.922C675.144 146.683 660.889 152.755 652.552 158.342C649.451 160.42 646.472 162.997 644.222 165.992C642.744 167.958 641.349 171.462 639.46 172.808C637.826 173.973 636.009 174.198 634.064 173.84C632.672 173.583 629.196 172.66 628.435 171.369C627.008 168.948 628.391 164.69 629.245 162.247C631.552 155.651 637.393 145.475 643.809 142.205C644.845 141.677 645.22 141.681 646.33 141.796C648.072 143.474 647.645 147.135 647.92 149.393L653.166 147.465C651.004 141.19 648.808 135.286 645.08 129.728C634.116 113.382 599.749 82.5441 581.781 73.6807C570.549 68.1398 557.029 65.2189 544.516 66.6832C522.859 69.421 510.029 74.9652 491.773 86.2337C487.594 88.8128 483.073 91.2733 479.152 94.216ZM156.505 418.377C155.494 420.308 154.446 422.221 153.598 424.231C156.718 433.804 161.155 442.442 165.28 451.571C168.993 459.787 172.404 468.221 175.792 476.577C185.266 499.937 193.942 523.562 202.989 547.095C210.757 567.3 219.182 587.6 225.974 608.146C228.504 615.801 230.611 623.672 232.832 631.425C234.819 638.362 239.616 657.003 245.926 660.492C248.342 661.828 251.617 662.141 254.325 662.207C259.981 662.345 265.845 661.089 271.511 660.709C283.776 659.886 296.075 659.48 308.322 658.35C316.851 657.563 325.353 656.152 333.841 654.99C340.845 654.032 348.645 653.539 355.288 651.119C359.181 649.701 361.913 647.858 364.675 644.719C358.164 627.377 350.876 610.296 344.497 592.911C339.794 580.093 336.206 566.774 330.849 554.213C329.863 551.903 328.778 548.154 326.283 547.153C324.475 546.427 322.294 546.213 320.376 545.937C322.714 551.652 324.522 557.651 326.968 563.295C332.833 578.079 345.408 602.476 347.543 617.488C346.696 619.507 345.919 621.605 344.87 623.527C341.664 625.707 338.34 627.029 334.641 628.138C327.102 630.396 318.999 631.368 311.3 633.095C298.758 635.909 286.014 639.802 273.253 641.276C270.095 641.64 267.147 641.541 264.032 640.95C258.855 639.97 254.772 638.055 251.849 633.466C247.97 627.377 245.515 618.857 243.187 612.013C238.699 598.823 234.708 585.374 230.059 572.258C217.443 536.657 203.708 501.491 191.833 465.615C189.013 457.095 183.837 445.304 183.371 436.6C191.637 432.46 199.95 428.213 208.952 425.889C224.134 421.969 240.411 422.373 255.937 421.039C264.136 420.335 277.403 416.982 285.056 419.331C286.013 419.625 286.13 419.751 286.589 420.645C288.001 423.396 288.805 426.897 289.994 429.812C296.243 445.121 301.078 460.777 306.665 476.311C311.323 475.823 315.84 474.552 320.47 473.855C317.026 462.647 312.396 451.824 308.324 440.835C305.334 432.766 294.9 398.732 289.39 395.449C289.176 395.321 288.954 395.188 288.709 395.143C274.512 398.225 259.936 396.753 245.508 397.402C239.053 397.693 232.573 398.794 226.172 399.667C219.327 400.6 212.377 401.242 205.602 402.592C188.977 405.907 172.151 411.947 156.505 418.377ZM312.796 439.071Q319.115 456.028 324.807 473.205L330.931 472.247C328.654 466.692 324.903 459.446 324.525 453.454L325.07 453.14C328.83 458.254 329.761 466.091 332.593 471.876C350.404 470.923 379.481 473.986 393.144 486.179C399.476 491.829 403.824 499.605 406.987 507.387C415.54 528.36 421.157 550.155 429.14 571.309C444.309 567.975 460.078 568.185 475.276 565.247C471.59 557.436 469.802 548.625 467.301 540.357C465.188 533.372 462.527 526.541 459.992 519.7C454.417 504.655 448.785 489.483 441.894 474.982C436.604 463.852 430.412 453.128 424.88 442.113C422.829 438.031 419.952 427.768 416.122 425.711C397.661 428.624 379.034 429.567 360.386 430.596C347.993 431.28 335.001 431.328 322.867 434.183C319.118 435.065 315.753 436.581 312.796 439.071ZM577.528 378.642C576.519 390.373 575.46 402.251 573.753 413.903C570.26 437.741 566.015 461.1 564.044 485.149C563.504 491.735 562.374 498.451 562.946 505.069C563.142 507.334 564.024 509.461 564.807 511.576C572.794 516.748 579.377 517.499 588.702 517.544C591.716 517.559 595.07 517.758 598.027 517.086C604.116 515.701 608.307 511.079 611.339 505.859C615.258 499.112 621.991 483.476 623.747 475.89C625.555 468.077 625.119 453.441 625.957 444.508C626.657 437.038 628.292 429.629 629.25 422.178C632.238 398.93 634.382 378.018 642.236 355.668L641.981 355.019L641.485 354.89C630.673 361.355 619.933 365.835 607.314 366.599C605.633 370.567 602.872 379.797 598.467 381.132C595.662 381.982 592.881 378.731 590.203 378.324C586.399 377.746 581.415 378.539 577.528 378.642ZM465.225 152.841C470.46 150.939 476.908 148.648 481.387 145.298C481.996 137.149 484.178 129.104 486.405 121.262C487.25 118.286 488.532 115.13 489.01 112.095C489.232 110.688 489.095 109.235 488.18 108.078C485.807 105.073 476.113 104.502 471.307 100.912C468.174 103.692 464.983 106.592 462.787 110.204C460.264 114.354 458.862 119.274 457.211 123.824C452.729 136.176 448.996 146.522 448.001 159.882C452.146 158.279 456.29 156.7 460.208 154.584C464.892 138.895 466.769 122.369 473.601 107.309C474.549 106.05 474.638 105.887 476.111 105.372L476.784 105.921C477.079 109.811 473.51 115.86 472.397 119.796C469.378 130.471 467.023 141.892 465.225 152.841ZM486.431 144.431C490.151 143.028 493.507 141.416 496.961 139.449C498.809 138.353 500.763 137.318 502.472 136.014Q505.33 126.102 507.934 116.121C503.129 113.972 498.367 111.603 493.486 109.643C490.816 120.986 486.891 132.749 486.431 144.431ZM381.129 751.302Q393.688 749.425 406.187 747.177C405.842 744.45 405.779 737.752 404.199 735.681L403.374 735.556L402.679 735.756C393.901 738.2 389.097 732.604 382.995 743.186C381.904 745.08 380.032 748.78 380.196 750.996C381.004 751.338 380.677 751.334 381.129 751.302ZM147.54 467.094C139.771 467.997 133.143 472.39 128.25 478.431C126.622 480.44 124.987 483.053 125.265 485.76C125.519 488.234 127.522 490.813 129.106 492.614C132.127 496.05 135.913 498.984 139.372 501.984C148.434 509.84 157.943 517.151 166.924 525.099C173.44 530.865 179.927 537.251 185.645 543.801C193.444 552.736 199.399 563.554 204.115 574.392C207.315 581.747 210.094 589.352 210.893 597.377C211.082 601.334 210.596 606.463 213.954 609.296C215.461 610.567 217.719 611.295 219.553 612.013C214.679 600.924 211.466 588.804 207.304 577.39C203.698 567.502 200.258 557.486 196.484 547.668C193.707 540.446 190.518 533.377 187.798 526.138C184.796 518.148 182.257 509.98 179.271 501.978Q174.198 488.723 168.282 475.822C161.825 472.851 154.849 466.704 147.54 467.094ZM507.941 135.877C512.146 134.575 516.423 132.53 520.624 131.469C523.533 130.526 526.502 129.66 529.362 128.584C523.904 124.244 517.028 121.939 511.733 117.743C511.06 123.886 509.523 129.916 507.941 135.877ZM778.136 707.587C775.381 708.279 757.558 712.203 756.809 713.788C756.316 714.83 756.615 716.236 756.714 717.355C757.856 718.082 758.353 717.674 759.619 717.414C767.122 715.386 774.596 713.47 781.891 710.762C781.111 709.743 779.963 707.629 778.634 707.516C778.467 707.502 778.302 707.563 778.136 707.587ZM345.03 552.336C342.102 552.495 339.253 552.53 336.323 552.391C338.094 562.031 343.266 573.784 346.585 583.113C350.29 593.525 357.219 617.637 363.506 625.788C365.523 626.402 366.959 625.607 368.858 624.861L369.551 624.24C369.255 620.082 361.273 600.312 359.289 594.337C355.525 583 352.451 571.43 348.457 560.171C347.494 557.458 346.468 554.838 345.03 552.336ZM557.345 767.292C555.116 767.371 552.864 767.208 550.861 768.296L550.141 769.241L550.323 770.214C555.777 773.077 566.799 764.52 571.342 779.995C572.706 784.643 572.56 789.666 571.906 794.422C572.782 795.091 573.262 795.44 574.367 795.578C575.906 794.129 576.041 791.33 576.113 789.287C576.27 784.787 575.898 779.946 575.399 775.471C572.84 771.688 569.976 768.334 565.254 767.379C562.68 766.859 559.942 767.036 557.345 767.292ZM534.011 801.541C540.277 799.169 546.842 797.81 553.386 796.445C557.764 795.611 562.361 795.004 566.643 793.794L566.516 793.084C565.894 789.472 566.017 785.836 565.349 782.249C562.751 780.592 546.621 777.17 543.301 777.522C539.618 785.051 536.175 793.444 534.011 801.541ZM580.529 175.712C580.146 172.058 579.968 168.451 579.885 164.779C570.019 154.696 549.151 141.201 536.834 133.287L535.906 134.044C538.307 140.431 539.17 147.43 540.928 154.013C544.981 169.189 550.201 185.583 557.347 199.541L558.029 200.174C560.72 199.448 564.623 193.006 566.417 190.603Q566.22 190.033 566.036 189.459C564.276 183.828 555.074 153.134 556.943 149.616L557.617 149.879C562.303 162.078 565.31 175.526 568.442 188.222C572.112 183.671 576.692 180.105 580.529 175.712ZM743.684 715.573C737.183 717.394 725.661 718.082 720.818 719.931C720.151 721.492 719.776 722.794 719.539 724.478C720.189 724.717 720.437 724.852 721.139 724.757C729.471 724.325 737.792 722.781 745.968 721.167C745.837 719.368 745.899 717.38 744.957 715.802L743.684 715.573ZM688.833 728.114C694.904 727.864 706.238 727.963 711.544 725.347C711.951 724.643 712.419 724.123 712.085 723.259C711.941 722.886 711.404 722.155 711.187 721.819C711.074 721.644 710.971 721.463 710.862 721.285C709.409 720.625 708.311 721.016 706.746 721.207C698.965 721.635 691.019 722.509 683.234 722.257L683.419 728.452L688.833 728.114ZM516.396 561.38C522.794 566.169 528.938 571.278 535.261 576.164C534.746 561.78 533.201 535.256 535.393 521.493C537.537 508.039 543.047 495.147 547.631 482.399Q553.103 467.257 557.417 451.745C557.925 449.974 560.631 442.609 559.72 441.377C551.643 457.987 544.093 474.948 536.414 491.751C532.831 499.593 529.791 507.647 525.529 515.16C521.96 521.451 518.057 527.855 513.693 533.62C509.04 539.766 503.281 545.975 499.449 552.621C500.165 553.136 500.554 553.243 501.431 553.466C506.364 554.72 512.214 558.552 516.396 561.38ZM504.064 564.217C499.875 570.135 496.303 576.433 492.191 582.394C488.33 587.99 483.924 593.238 479.645 598.516C476.832 601.984 474.02 605.448 470.959 608.703C467.84 612.017 464.226 615.225 461.533 618.882C473.338 629.133 485.889 637.095 499.196 645.219C507.172 650.089 515.006 654.933 523.419 659.035C532.346 663.632 540.898 668.899 549.846 673.462C549.467 667.319 547.146 661.188 545.701 655.22C543.906 647.809 542.593 640.113 541.271 632.604C539.334 621.601 538.062 610.209 537.013 599.086C536.6 594.703 536.588 590.24 536.011 585.885C525.465 580.281 513.439 567.94 504.064 564.217Z"/>
		<path fill="#231F20" d="M680.622 606.238Q681.151 606.216 681.68 606.202C685.467 606.117 688.33 606.791 691.063 609.675C692.067 610.734 692.743 612.216 692.5 613.7C692.164 615.757 690.811 617.038 689.203 618.177Q688.328 618.354 687.446 618.486C684.601 618.901 681.938 618.442 679.642 616.607C678.359 615.581 677.538 614.158 677.469 612.501C677.353 609.722 678.897 608.196 680.622 606.238Z"/>
		<path fill="#231F20" d="M458.948 214.474C459.542 214.492 460.394 214.461 460.983 214.641C463.679 215.465 465.487 218.771 466.471 221.2C468.634 226.54 469.797 234.972 467.434 240.33C466.323 242.848 464.887 243.585 462.375 244.479C458.381 243.021 455.708 240.713 453.922 236.811C451.099 230.646 451.832 223.457 454.19 217.304L458.948 214.474Z"/>
		<path fill="#231F20" d="M487.808 209.451C488.56 209.368 489.305 209.29 490.055 209.458C491.951 209.881 493.455 211.665 494.415 213.251C497.424 218.225 498.26 226.813 496.755 232.431C496.027 235.148 494.94 237.129 492.455 238.501C491.761 238.524 491.01 238.577 490.313 238.51C488.318 238.318 486.856 236.967 485.641 235.466C482.41 231.471 481.417 225.199 481.951 220.212C482.479 215.277 483.957 212.459 487.808 209.451Z"/>
		<path fill="#DD2143" d="M281.582 424.202L282.638 424.217C288.305 430.334 301.397 468.858 304.398 478.164C297.703 480.876 287.788 483.154 282.015 487.091C277.723 490.018 276.604 493.308 275.606 498.141C273.941 498.088 272.256 498.017 270.599 497.842C269.086 497.682 267.524 497.384 266.517 496.162C267.05 493.749 269.378 491.23 270.688 489.087C274.702 482.523 272.251 466.817 270.375 459.724C267.263 457.065 262.54 453.515 258.684 452.119C253.117 450.104 234.019 453.253 228.553 455.747C225.883 456.966 223.212 458.731 222.265 461.651C220.84 466.041 223.872 472.008 225.813 475.854C230.624 485.384 242.262 509.541 252.866 511.771C255.466 512.317 260.715 510.931 262.459 512.419C266.622 515.974 269.477 521.278 273.523 525.09C285.975 536.818 301.883 541.012 317.647 546.215C321.199 554.437 324.087 562.987 327.317 571.344C330.445 579.437 333.904 587.393 336.96 595.516Q341.324 606.097 345.126 616.892C344.122 618.784 343.199 620.833 340.923 621.422C336.12 622.666 330.618 622.519 325.662 623.412C313.826 625.543 301.936 627.382 290.111 629.562C283.111 630.853 276.138 632.938 269.022 633.457C266.342 633.653 261.253 633.81 259.083 632C256.615 629.941 253.634 621.039 252.414 617.786C246.923 603.145 242.69 588.01 237.572 573.236C232.879 559.687 227.435 546.363 222.404 532.935C219.497 525.179 216.979 517.307 214.166 509.522L198.189 464.685C195.855 458.167 192.5 451.108 190.942 444.388C190.571 442.787 190.576 441.529 191.493 440.103C202.963 431.337 263.912 426.803 281.582 424.202Z"/>
		<path fill="#231F20" d="M596.661 423.013C597.936 423.182 599.381 423.291 600.578 423.777C602.258 424.459 603.945 426.168 604.65 427.824C605.553 429.943 605.315 432.331 604.424 434.409C602.983 437.767 600.062 440.183 596.735 441.521C594.426 441.431 591.96 440.661 590.418 438.837C588.118 436.117 588.258 432.807 588.431 429.492C590.982 426.45 592.76 424.309 596.661 423.013Z"/>
		<path fill="#FEFEFE" d="M242.133 454.32C242.752 454.465 243.238 454.509 243.871 454.428C248.539 453.835 252.091 454.455 256.481 455.95C250.93 457.968 243.089 459.852 239.4 464.782C238.262 466.303 237.625 468.106 237.982 470.009C238.79 474.323 243.238 476.848 246.606 479.035C249.186 478.845 251.759 478.407 254.346 478.198L254.769 479.264C254.59 480.386 254.371 480.916 253.609 481.721C251.76 483.673 249.956 485.756 248.581 488.076C246.627 491.371 244.958 495.378 246.124 499.252C246.925 501.91 249.131 502.797 251.394 503.991C252.741 503.518 254.403 503.082 255.637 502.372C257.379 501.369 257.563 499.398 258.148 497.628C258.921 497.227 259.108 497.199 259.938 497.167C261.385 499.09 259.655 502.332 259.87 504.643C260.004 506.084 260.651 507.693 261.101 509.078C258.667 509.143 256.079 509.289 253.767 508.405C240.904 503.491 230.005 477.218 224.256 465.035C224.976 463.201 225.845 461.421 226.67 459.633C231.735 457.091 236.666 455.7 242.133 454.32Z"/>
		<path fill="#FEFEFE" d="M453.797 120.488C453.76 122.381 452.374 125.096 451.703 126.908C447.496 138.288 444.408 149.397 441.945 161.278C438.611 162.846 435.311 164.557 431.707 165.41C431.683 165.142 431.626 164.874 431.633 164.605C431.687 162.535 432.816 159.947 433.453 157.953C437.612 144.941 444.346 130.6 453.797 120.488Z"/>
		<path fill="#FEFEFE" d="M378.215 736.517C378.353 738.885 371.344 753.014 369.978 756.813C368.753 760.22 369.182 764.409 368.455 767.999C368.159 769.465 366.436 770.332 365.29 771.144C364.97 770.791 364.849 770.711 364.658 770.201C362.529 764.515 366.641 753.848 368.805 748.611C370.924 743.485 372.829 738.771 378.215 736.517Z"/>
		<path fill="#FEFEFE" d="M404.179 754.221L406.041 754.043L406.852 754.909C407.046 756.115 407.161 756.3 406.635 757.379C403.247 758.372 399.581 758.496 396.081 758.965Q387.451 760.07 378.885 761.598C377.857 761.929 377.102 762.107 376.02 762.082C375.651 760.934 376.933 759.001 377.471 757.862C386.41 756.847 395.188 754.942 404.179 754.221Z"/>
		<path fill="#FEFEFE" d="M662.737 722.094C666.4 722.309 669.985 722.684 673.618 723.197C673.838 724.939 674.126 726.754 673.395 728.4L671.665 728.804C667.418 728.974 663.224 728.991 658.981 728.732C660.443 726.681 661.55 724.315 662.737 722.094Z"/>
		<path fill="#FEFEFE" d="M801.248 697.954L802.422 698.168C803.768 699.318 804.312 700.96 805.02 702.539C801.67 703.373 798.582 704.403 795.387 705.711C794.034 706.303 793.418 706.849 791.953 706.507C791.368 705.094 791.168 703.646 790.915 702.149C794.307 700.551 797.717 699.214 801.248 697.954Z"/>
		<path fill="#FEFEFE" d="M581.297 166.147C584.22 167.025 588.575 170.089 590.3 172.626L589.807 173.138C587.291 173.501 585.187 174.187 582.842 175.103C582.406 172.111 581.822 169.126 581.297 166.147Z"/>
		<path fill="#FEFEFE" d="M251.717 465.289C252.767 465.587 253.276 465.983 254.149 466.614L254.265 467.538C253.314 468.926 252.148 469.19 250.637 469.711C249.849 469.751 249.48 469.664 248.739 469.449L248.521 468.533C249.355 467.022 250.337 466.298 251.717 465.289Z"/>
		<path fill="#231F20" d="M152.307 534.656C152.842 534.748 153.251 534.79 153.768 535.024C154.197 535.219 154.673 535.548 155.043 535.865C159.013 539.265 162.522 553.177 163.758 558.371C165.62 566.2 166.349 574.579 167.394 582.554Q169.984 603.034 172.986 623.458C176.707 647.811 182.271 672.104 188.103 696.032C192.495 714.051 196.804 731.966 202.819 749.521C214.631 784 234.05 825.889 265.791 846.235C269.835 848.827 274.721 849.896 278.989 852.065C280.802 852.987 281.966 853.721 282.621 855.755C282.535 857.41 282.315 858.085 281.446 859.497C278.617 860.295 276.33 859.798 273.595 858.857C255.268 852.559 236.551 831.77 226.038 815.889C219.669 806.269 214.282 795.621 209.261 785.246C196.679 759.244 188.93 730.808 182.117 702.867Q170.703 656.348 163.652 608.971C161.713 596.224 160.719 583.244 158.643 570.561C157.649 564.491 156.355 558.352 154.861 552.385C153.754 547.958 151.845 542.943 151.554 538.42C151.469 537.107 151.881 535.88 152.307 534.656Z"/>
		<path fill="#231F20" d="M709.647 301.529C722.112 301.846 734.031 305.414 745.916 308.786C756.68 311.84 767.561 314.749 778.009 318.783C803.108 328.473 833.482 347.532 852.58 366.502C867.503 381.325 878.941 397.187 889.004 415.55C890.103 417.555 893.072 421.708 893.02 423.856C892.936 427.344 896.313 432.311 897.595 435.763C900.827 444.465 903.273 453.555 905.306 462.605C906.412 467.529 906.021 476.775 907.323 479.809C907.888 481.126 908.589 482.634 908.7 484.079C908.928 487.05 907.565 490.685 907.354 493.734C907.065 497.907 907.404 502.121 907.125 506.304C906.619 513.905 905.327 521.573 904.122 529.094C902.836 537.126 901.447 544.868 899.04 552.658C896.147 562.023 888.041 579.692 881.866 586.98C879.21 590.115 876.136 592.489 872.823 594.889C872.705 594.958 872.591 595.035 872.47 595.098C870.887 595.919 870.016 595.871 868.385 595.414C867.388 594.484 867.353 594.532 867.208 593.185C868.152 590.931 871.089 589.814 873.135 588.471C886.754 579.528 896.191 546.17 899.249 530.934Q899.658 528.908 900.016 526.872Q900.375 524.837 900.683 522.793Q900.992 520.749 901.25 518.698Q901.508 516.647 901.716 514.591Q901.923 512.534 902.08 510.473Q902.237 508.412 902.344 506.348Q902.45 504.284 902.506 502.217Q902.561 500.151 902.566 498.084Q902.571 496.017 902.525 493.951Q902.478 491.884 902.382 489.819Q902.285 487.755 902.137 485.693Q901.99 483.631 901.792 481.574Q901.593 479.516 901.345 477.464Q901.096 475.412 900.797 473.367Q900.498 471.322 900.148 469.285Q899.799 467.247 899.4 465.219Q899.001 463.191 898.552 461.174Q898.103 459.156 897.604 457.15Q897.106 455.144 896.558 453.151Q896.011 451.158 895.414 449.179Q894.818 447.2 894.173 445.236Q893.528 443.272 892.835 441.325Q892.142 439.377 891.402 437.447Q890.661 435.518 889.873 433.607Q889.085 431.696 888.251 429.805Q887.416 427.914 886.536 426.044Q885.655 424.174 884.728 422.326Q883.802 420.478 882.83 418.654Q881.858 416.83 880.842 415.03Q879.826 413.23 878.766 411.455Q877.706 409.681 876.602 407.933Q875.499 406.185 874.353 404.465C867.379 394.024 859.876 383.488 851.184 374.4C845.971 368.949 840.004 364.295 834.14 359.575C803.782 335.141 771.175 321.523 733.427 312.672C725.558 310.827 717.468 311.471 709.987 309.797C708.098 309.375 706.778 308.747 705.711 307.055C705.498 305.864 705.59 305.178 706.102 304.107C706.911 302.415 707.992 302.067 709.647 301.529Z"/>
		<path fill="#231F20" d="M277.08 671.988C278.577 671.949 280.178 671.893 281.604 672.42C285.478 673.851 288.701 677.449 291.027 680.756C299.493 692.794 304.894 707.211 311.764 720.238C316.031 728.328 324.918 742.156 327.624 749.936C328.15 751.449 327.554 751.968 326.886 753.307C326.283 753.5 325.663 753.591 325.042 753.709C316.022 749.518 294.042 699.546 287.103 688.367C285.391 685.608 283.057 683.224 280.911 680.797C278.317 677.863 276.831 676.049 277.08 671.988Z"/>
		<path fill="#231F20" d="M251.532 279.717C255.201 279.569 258.896 279.388 262.567 279.53C267.299 279.712 271.987 280.439 276.708 280.776C288.757 281.637 334.275 284.435 343.388 288.784L343.298 289.292C339.142 289.916 335.023 289.262 330.879 288.809Q314.966 286.993 298.966 286.248Q282.967 285.503 266.954 285.833C258.72 285.944 250.397 287.069 242.2 286.902C240.067 286.858 237.927 286.705 236.102 285.527L236.238 284.206C240.789 280.349 245.855 280.234 251.532 279.717Z"/>
		<path fill="#231F20" d="M265.334 304.641C272.215 304.162 290.708 306.371 297.696 307.684C298.83 307.897 300.027 307.974 300.692 308.967C299.317 310.088 297.255 310.098 295.537 310.317C289.162 311.378 266.045 311.955 261.058 308.938C260.347 307.782 260.372 307.867 260.656 306.538C262.013 305.309 263.611 305.069 265.334 304.641Z"/>
	</g>
	<g>
		<path fill="#FEFEFE" d="M0 0L1024 0L1024 1024L0 1024L0 0ZM472.564 90.1607C450.085 81.171 404.97 71.2676 382.033 81.283C377.083 83.4445 373.809 86.5334 371.762 91.5721C367.04 103.197 369.403 117.626 374.394 128.737C381.472 144.495 399.594 154.933 414.551 162.261C416.128 163.034 422.195 165.077 423.007 165.924C424.431 167.41 420.1 172.931 423.954 173.962C427.84 175.001 435.267 170.815 439.001 169.183L439.045 169.972C439.623 181.12 438.307 192.355 438.748 203.527C440.019 235.728 447.382 285.406 462.603 313.599C466.95 321.65 472.97 329.31 479.733 335.47C497.744 351.874 525.832 353.016 549.08 351.799C556.607 351.405 562.858 350.836 570.06 348.33C574.101 346.924 578.375 344.7 582.58 344.03L582.819 344.511C581.922 345.488 581.106 345.941 579.94 346.592C573.619 350.123 562.881 374.543 560.783 381.74C560.105 384.068 559.513 386.477 560.704 388.736C562.66 392.446 567.551 395.099 570.936 397.447C570.279 401.682 569.5 406.013 567.79 409.971C564.753 416.998 559.576 422.974 556.387 429.96L533.138 481.247C529.568 489.272 526.666 497.645 522.885 505.561C520.216 511.148 516.943 516.37 513.688 521.625C508.8 529.519 503.729 537.034 497.865 544.245C494.223 548.724 489.716 551.768 486.91 556.92C489.068 559.852 491.739 561.33 494.86 563.051C485.244 581.776 471.128 598.694 456.467 613.689Q452.454 609.337 448.823 604.66Q445.191 599.984 441.969 595.018Q438.746 590.051 435.954 584.83Q433.163 579.609 430.823 574.171C437.292 574.797 474.171 571.806 479.133 568.064C479.861 567.515 479.961 567.033 480.119 566.131C480.69 562.864 477.446 557.183 476.575 553.907Q473.984 544.127 470.932 534.481Q467.881 524.835 464.376 515.345Q460.872 505.854 456.922 496.54Q452.971 487.226 448.585 478.109C442.239 465.144 434.74 452.692 428.14 439.845C425.168 434.061 422.779 428.035 420.074 422.13C413.796 421.987 407.535 422.356 401.261 422.501C378.54 423.024 355.849 424.458 333.429 428.233C329.589 428.88 325.162 429.132 321.459 430.308C318.07 431.385 314.61 434.203 311.494 436.004C308.013 423.917 300.922 397.881 293.569 388.143C291.888 389.018 290.108 390.034 288.223 390.358C283.263 391.213 277.832 390.674 272.813 390.569C265.715 390.42 258.516 390.306 251.423 390.584Q242.212 391.034 233.047 392.053Q223.882 393.072 214.798 394.655Q205.713 396.238 196.743 398.38Q187.774 400.521 178.954 403.213C172.734 405.062 164.399 406.475 159.161 410.338C153.574 414.459 150.848 422.175 146.595 427.543C151.591 434.459 159.352 455.697 162.815 464.259C154.986 460.896 148.176 458.014 139.667 461.263C131.552 464.361 122.905 471.926 119.513 480.015Q119.196 480.776 118.955 481.564Q118.713 482.352 118.55 483.16Q118.386 483.968 118.301 484.787Q118.217 485.607 118.212 486.432Q118.208 487.256 118.283 488.077Q118.359 488.897 118.514 489.707Q118.669 490.516 118.902 491.307Q119.134 492.098 119.443 492.862C122.804 501.178 143.398 517.108 150.665 523.644C162.401 534.199 175.506 545.017 184.747 557.859C190.867 566.365 198.965 582.34 201.441 592.392C202.859 598.149 202.912 604.691 205.584 610.04C207.273 613.42 210.675 617.559 214.309 618.931C216.303 619.684 218.853 619.505 220.956 619.363C225.577 633.224 230.508 662.929 244.295 669.999C247.211 671.494 250.218 671.888 253.466 671.801C263.437 671.532 273.458 668.858 283.38 667.744C290.817 666.909 298.299 666.671 305.742 665.936C315.735 664.95 325.69 663.559 335.681 662.528C344.363 661.633 354.382 661.744 362.651 658.686C366.312 657.333 369.074 654.714 371.489 651.731C371.655 646.547 369.619 641.894 369.971 637.186C370.818 636.63 371.048 636.795 372.003 637.014C374.14 637.503 375.213 639.071 376.236 640.858C379.959 647.358 382.779 654.401 386.448 660.968C400.108 685.418 416.449 707.598 437.109 726.605C441.42 730.572 445.874 734.229 450.664 737.607C455.858 741.271 461.699 744.646 466.142 749.219C455.541 747.787 443.24 743.566 432.851 743.522C426.521 743.496 420.184 744.926 414.013 746.186C413.427 743.717 411.406 726.772 410.253 726.223C406.348 724.363 375.803 728.916 371.645 731.401C365.428 735.116 362.081 750.829 359.109 757.241C353.927 757.306 326.514 765.286 322.502 767.819L321.961 768.743L322.54 769.725C326.86 770.365 351.862 764.057 357.824 762.682C357.318 765.069 356.782 767.429 356.528 769.859C359.19 773.524 361.601 775.326 365.607 777.401L366.403 777.253C371.849 776.262 377.368 776.24 382.84 775.5C388.655 774.713 415.307 769.953 417.676 766.828C417.999 766.402 415.449 753.591 415.272 751.922C420.566 751.991 426.012 752.322 431.291 752.101C434.26 751.976 436.635 750.795 439.696 751.203C447.326 752.219 454.904 753.467 462.519 754.565C468.519 755.43 474.822 755.762 480.606 757.673C485.348 759.239 489.592 762.246 494.149 764.262C505.644 769.346 517.914 773.142 530.157 775.883C527.534 779.775 524.891 783.666 522.576 787.752C519.623 792.965 517.414 798.534 514.842 803.933C513.567 806.609 511.854 809.128 510.714 811.85C510.273 812.903 510.087 813.748 510.242 814.896C511.504 815.974 512.974 816.979 514.72 816.797C515.616 816.703 516.144 815.75 516.593 815.034C519.221 810.836 521.009 805.849 523.011 801.311C526.273 793.917 529.702 786.91 534.083 780.089C530.546 789.258 527.702 798.617 524.483 807.895C524.115 809.374 523.817 809.983 524.246 811.471C526.956 813.413 531.058 812.679 534.182 812.145C541.33 810.922 548.353 808.87 555.468 807.449C561.092 806.326 566.757 805.722 572.457 805.138C572.593 805.299 572.727 805.461 572.865 805.619C574.329 807.294 576.114 808.957 578.474 809.05C579.2 809.079 579.881 808.688 580.37 808.163C583.832 804.45 582.285 789.494 585.026 788.556C589.996 789.895 632.47 801.379 633.297 802.227C630.649 804.339 618.138 803.991 614.067 804.6C604.3 806.06 594.479 807.603 584.782 809.459C578.275 810.705 571.805 812.307 565.248 813.268C546.369 816.037 527.021 818.034 507.984 819.341C503.19 819.67 498.38 819.58 493.585 819.886C485.544 820.399 477.134 822.49 469.133 821.616C456.991 820.288 444.899 816.504 433.167 813.218Q389.596 800.894 347.161 785.098C341.867 783.088 325.172 777.574 321.856 775.05C319.268 773.08 317.262 770.263 314.835 768.077C313.551 766.92 312.641 766.302 310.912 766.707C309.857 768.09 309.291 769.247 309.043 770.989C307.412 782.469 307.297 794.42 306.055 805.994C305.355 812.517 303.979 818.972 303.096 825.475C300.965 841.178 298.996 856.794 296.177 872.397L295.512 872.42C293.541 872.508 291.688 872.543 290.257 874.121C289.391 875.076 289.255 876.201 289.47 877.424C291.206 887.303 333.503 910.822 343.549 916.443C354.815 922.747 366.728 927.642 378.51 932.883C400.29 942.57 440.761 960.643 463.593 961.184C468.454 961.299 473.513 959.618 478.253 958.634C490.932 956.002 503.523 953.314 516.001 949.797C525.347 947.164 534.554 943.949 543.809 941.01C566.247 933.885 588.305 926.481 610.423 918.423C617.565 915.821 625.517 914.345 632.457 911.441C633.92 910.828 635.693 910.003 636.486 908.544C638.234 905.328 638.753 899.41 639.271 895.731C641.162 882.313 641.866 868.6 643.398 855.116C645.214 839.124 647.8 823.117 649.127 807.083C649.294 805.068 649.369 803.03 648.889 801.053C644.514 797.215 635.768 796.127 630.104 794.706L632.981 791.343C640.679 793.89 647.281 798.538 653.99 802.992C652.033 816.19 651.706 829.583 650.724 842.876C649.702 856.712 648.069 870.584 646.369 884.355C645.447 891.82 645.135 900.335 642.757 907.487C642.095 909.476 641.349 910.797 639.626 912.055C632.006 917.62 593.387 927.251 591.059 932.383C594.4 935.588 620.309 934.548 625.873 934.43C646.535 933.992 667.2 932.751 687.847 931.884C697.802 931.465 707.778 931.487 717.737 931.17C720.097 931.095 722.384 930.604 724.731 930.535C743.157 929.994 761.369 928.851 779.769 927.827C792.744 927.104 805.701 926.975 818.579 924.926C823.083 924.209 830.756 922.737 833.957 919.268C837.194 915.76 836.866 909.226 836.606 904.735C835.685 888.78 836.779 872.93 836.378 856.959C835.421 818.842 829.979 729.737 811.412 699.231C810.091 697.061 808.941 695.147 810.433 692.784C815.692 689.916 828.145 696.022 830.263 688.553C830.56 687.507 830.392 686.729 829.802 685.855C827.281 682.118 819.807 679.77 815.868 677.59C818.402 674.659 826.753 665.246 826.413 661.605C826.294 660.337 825.462 658.825 824.452 658.047C823.234 657.108 821.683 657.116 820.256 657.445C816.221 658.377 810.318 663.936 806.673 662.66C806.167 661.778 805.968 661.134 805.965 660.131C805.952 656.014 806.785 651.705 807.132 647.59C807.863 638.904 808.331 629.877 808.142 621.166C806.849 561.359 800.487 501.642 782.721 444.338C776.755 425.097 769.832 406.467 760.033 388.783C753.793 377.523 745.773 367.14 737.797 357.072C722.276 337.478 706.082 322.162 683.437 310.847C680.934 305.248 676.522 290.961 670.434 289.105C669.235 288.739 667.962 289.002 666.957 289.735C665.077 291.106 664.342 293.928 663.579 296.031C658.225 299.053 651.198 304.138 644.87 303.621C639.841 301.316 632.195 282.828 630.181 277.391C627.719 270.745 624.3 262.488 623.752 255.463L624.171 254.821C628.278 254.019 632.326 253.657 636.397 252.607C642.828 260.704 654.617 265.001 664.596 266.077C675.938 267.301 690.964 262.896 699.776 255.664C703.135 252.907 705.443 249.22 705.667 244.809C705.93 239.659 702.038 234.564 699.485 230.368C708.059 228.886 714.227 226.392 719.507 219.024C723.551 213.382 725.711 206.339 724.549 199.399C723.421 192.664 719.277 188.378 714.862 183.627C713.823 182.51 712.527 180.689 711.278 179.848C710.419 179.269 708.896 179.245 707.871 179.124C707.606 175.466 708.462 171.794 708.542 168.131C708.699 160.925 705.111 151.817 699.598 147.174C693.119 141.719 683.475 140.239 675.265 141.152C668.901 141.86 662.907 143.977 657.055 146.488C655.969 140.247 654.191 134.926 651.002 129.428C640.885 111.987 623.107 97.6429 607.641 85.0658C602.272 80.6998 596.955 76.1274 591.311 72.1265Q590.102 71.2616 588.857 70.4491Q587.612 69.6366 586.334 68.8781Q585.055 68.1195 583.745 67.4163Q582.436 66.713 581.097 66.0664Q579.759 65.4197 578.394 64.8309Q577.029 64.242 575.64 63.712Q574.251 63.182 572.841 62.7118Q571.431 62.2416 570.002 61.8321Q568.572 61.4226 567.127 61.0745Q565.682 60.7264 564.223 60.4404Q562.764 60.1543 561.295 59.9309Q559.825 59.7075 558.347 59.547Q556.869 59.3866 555.386 59.2894Q553.902 59.1922 552.416 59.1585Q550.93 59.1248 549.444 59.1547Q547.958 59.1845 546.474 59.2778Q540.214 59.4964 534.029 60.488Q527.844 61.4797 521.829 63.2292C506.592 67.7475 484.455 79.4928 472.564 90.1607ZM330.879 288.809C335.023 289.262 339.142 289.916 343.298 289.292L343.388 288.784C334.275 284.435 288.757 281.637 276.708 280.776C271.987 280.439 267.299 279.712 262.567 279.53C258.896 279.388 255.201 279.569 251.532 279.717C245.855 280.234 240.789 280.349 236.238 284.206L236.102 285.527C237.927 286.705 240.067 286.858 242.2 286.902C250.397 287.069 258.72 285.944 266.954 285.833Q282.967 285.503 298.966 286.248Q314.966 286.993 330.879 288.809ZM152.307 534.656C151.881 535.88 151.469 537.107 151.554 538.42C151.845 542.943 153.754 547.958 154.861 552.385C156.355 558.352 157.649 564.491 158.643 570.561C160.719 583.244 161.713 596.224 163.652 608.971Q170.703 656.348 182.117 702.867C188.93 730.808 196.679 759.244 209.261 785.246C214.282 795.621 219.669 806.269 226.038 815.889C236.551 831.77 255.268 852.559 273.595 858.857C276.33 859.798 278.617 860.295 281.446 859.497C282.315 858.085 282.535 857.41 282.621 855.755C281.966 853.721 280.802 852.987 278.989 852.065C274.721 849.896 269.835 848.827 265.791 846.235C234.05 825.889 214.631 784 202.819 749.521C196.804 731.966 192.495 714.051 188.103 696.032C182.271 672.104 176.707 647.811 172.986 623.458Q169.984 603.034 167.394 582.554C166.349 574.579 165.62 566.2 163.758 558.371C162.522 553.177 159.013 539.265 155.043 535.865C154.673 535.548 154.197 535.219 153.768 535.024C153.251 534.79 152.842 534.748 152.307 534.656ZM872.823 594.889C876.136 592.489 879.21 590.115 881.866 586.98C888.041 579.692 896.147 562.023 899.04 552.658C901.447 544.868 902.836 537.126 904.122 529.094C905.327 521.573 906.619 513.905 907.125 506.304C907.404 502.121 907.065 497.907 907.354 493.734C907.565 490.685 908.928 487.05 908.7 484.079C908.589 482.634 907.888 481.126 907.323 479.809C906.021 476.775 906.412 467.529 905.306 462.605C903.273 453.555 900.827 444.465 897.595 435.763C896.313 432.311 892.936 427.344 893.02 423.856C893.072 421.708 890.103 417.555 889.004 415.55C878.941 397.187 867.503 381.325 852.58 366.502C833.482 347.532 803.108 328.473 778.009 318.783C767.561 314.749 756.68 311.84 745.916 308.786C734.031 305.414 722.112 301.846 709.647 301.529C707.992 302.067 706.911 302.415 706.102 304.107C705.59 305.178 705.498 305.864 705.711 307.055C706.778 308.747 708.098 309.375 709.987 309.797C717.468 311.471 725.558 310.827 733.427 312.672C771.175 321.523 803.782 335.141 834.14 359.575C840.004 364.295 845.971 368.949 851.184 374.4C859.876 383.488 867.379 394.024 874.353 404.465Q875.499 406.185 876.603 407.933Q877.706 409.681 878.766 411.455Q879.826 413.23 880.842 415.03Q881.858 416.83 882.83 418.654Q883.802 420.478 884.728 422.326Q885.655 424.174 886.536 426.044Q887.416 427.914 888.251 429.805Q889.085 431.696 889.873 433.607Q890.661 435.518 891.402 437.447Q892.142 439.377 892.835 441.325Q893.528 443.272 894.173 445.236Q894.818 447.2 895.414 449.179Q896.011 451.158 896.558 453.151Q897.106 455.144 897.604 457.15Q898.103 459.156 898.552 461.174Q899.001 463.191 899.4 465.219Q899.799 467.247 900.148 469.285Q900.498 471.322 900.797 473.367Q901.096 475.412 901.345 477.464Q901.593 479.516 901.791 481.574Q901.99 483.631 902.137 485.693Q902.285 487.755 902.382 489.819Q902.478 491.884 902.525 493.951Q902.571 496.017 902.566 498.084Q902.561 500.151 902.505 502.217Q902.45 504.284 902.344 506.348Q902.237 508.412 902.08 510.473Q901.923 512.534 901.716 514.591Q901.508 516.647 901.25 518.698Q900.992 520.749 900.683 522.793Q900.375 524.837 900.016 526.872Q899.658 528.908 899.249 530.934C896.191 546.17 886.754 579.528 873.135 588.471C871.089 589.814 868.152 590.931 867.208 593.185C867.353 594.532 867.388 594.484 868.385 595.414C870.016 595.871 870.887 595.919 872.47 595.098C872.591 595.035 872.705 594.958 872.823 594.889ZM277.08 671.988C276.831 676.049 278.317 677.863 280.911 680.797C283.057 683.224 285.391 685.608 287.103 688.367C294.042 699.546 316.022 749.518 325.042 753.709C325.663 753.591 326.283 753.5 326.886 753.307C327.554 751.968 328.15 751.449 327.624 749.936C324.918 742.156 316.031 728.328 311.764 720.238C304.894 707.211 299.493 692.794 291.027 680.756C288.701 677.449 285.478 673.851 281.604 672.42C280.178 671.893 278.577 671.949 277.08 671.988ZM295.537 310.317C297.255 310.098 299.317 310.088 300.692 308.967C300.027 307.974 298.83 307.897 297.696 307.684C290.708 306.371 272.215 304.162 265.334 304.641C263.611 305.069 262.013 305.309 260.656 306.538C260.372 307.867 260.347 307.782 261.058 308.938C266.045 311.955 289.162 311.378 295.537 310.317Z"/>
		<path fill="#FEFEFE" d="M681.21 319.828C718.735 339.257 749.275 380.422 765.193 418.896C786.301 469.909 795.008 524.443 797.962 579.308C798.648 592.056 798.338 604.827 798.862 617.561C799.22 626.253 799.858 666.181 797.059 672.907C789.007 680.672 726.995 691.905 713.152 693.782C700.608 695.483 688.247 696.587 675.589 696.827C679.658 687.421 684.398 678.306 688.435 668.876L692.939 671.93L699.528 669.654C703.84 659.725 705.632 648.631 708.381 638.181Q716.813 604.857 722.721 570.994Q728.628 537.132 731.978 502.921C733.58 487.644 734.453 472.343 735.884 457.065L738.068 432.732C738.506 428.079 739.71 423.141 739.39 418.481C738.651 417.418 738.663 417.395 737.425 417.035C736.258 417.301 735.607 417.536 734.653 418.284C731.474 420.774 735.233 436.381 728.106 492.378C727.272 505.473 724.991 518.816 723.229 531.831C717.871 571.41 710.821 608.306 700.297 646.835C698.709 652.649 697.385 658.483 695.608 664.252L694.991 663.62C689.755 658.295 683.435 654.089 677.422 649.697C656.978 634.763 633.848 619.146 609.011 612.679C602.077 610.874 594.828 610.591 587.697 610.522C588.87 600.791 591.59 590.796 593.954 581.282C596.606 570.609 599.2 559.473 602.924 549.132C608.989 532.29 616.522 515.992 622.317 499.069C626.359 487.266 630.509 475.452 634.307 463.57C636.267 457.438 637.778 451.17 639.719 445.031Q646.892 422.918 656.174 401.605C662.503 387.214 669.764 372.907 678.076 359.566C680.06 356.381 689.079 343.501 688.834 340.923C688.193 339.848 688.204 339.776 687.05 339.324C678.3 341.373 649.856 401.369 645.651 411.805C643.049 418.263 640.411 424.835 637.97 431.357C637.04 433.842 636.678 437.16 635.21 439.31C634.197 434.184 635.788 427.373 636.342 422.152C637.243 413.663 637.478 405.158 638.992 396.735C642.194 378.915 647.673 361.83 651.497 344.182C655.353 340.165 660.411 337.669 664.99 334.584C671.362 330.289 676.248 325.629 681.21 319.828ZM689.203 618.177C690.811 617.038 692.164 615.757 692.5 613.7C692.743 612.216 692.067 610.734 691.063 609.675C688.33 606.791 685.467 606.117 681.68 606.202Q681.151 606.216 680.622 606.238C678.897 608.196 677.353 609.722 677.469 612.501C677.538 614.158 678.359 615.581 679.642 616.607C681.938 618.442 684.601 618.901 687.446 618.486Q688.328 618.354 689.203 618.177Z"/>
		<path fill="#FEFEFE" d="M329.496 477.714Q331.103 477.637 332.711 477.643C343 477.703 369.304 482.952 379.067 486.773C383.746 488.604 388.588 491.213 392.274 494.669C404.324 505.97 416.028 554.832 423.028 572.9C428.474 586.955 436.13 602.082 445.955 613.599C470.257 642.085 510.358 660.324 542.839 678.213C550.67 682.526 565.339 690.394 571.887 695.663C578.245 700.779 577.88 705.58 581.911 709.429C582.978 710.447 584.335 710.525 585.789 710.378C586.788 710.278 588.035 709.087 588.557 708.255C589.445 706.842 589.495 705.305 589.077 703.735C586.006 692.183 570.809 685.697 561.719 680.009C561.826 679.896 561.937 679.785 562.041 679.669C562.214 679.476 562.379 679.276 562.55 679.081C565.983 675.171 582.087 637.197 584.338 630.283C585.806 625.773 586.653 620.922 587.645 616.281C590.132 616.281 592.975 617.846 595.477 618.362C599.692 619.232 603.893 619.725 608.025 620.997C633.103 628.714 664.676 649.461 684.757 666.356C677.729 678.535 671.41 691.526 665.711 704.381C660.946 715.128 656.207 725.94 651.678 736.788C645.686 751.142 635.279 783.131 622.642 791.547C612.516 789.325 593.242 782.874 583.8 783.512Q583.492 777.562 582.776 771.647C582.321 770.965 581.852 770.292 581.326 769.661C576.82 764.264 567.582 761.018 560.771 760.542C550.756 759.843 542.267 762.301 534.69 768.955C522.246 766.999 510.064 762.743 498.694 757.426C485.938 751.461 473.629 742.293 462.192 734.083C456.054 729.677 449.483 725.552 443.81 720.555C403.334 684.903 379.299 632.293 361.837 582.202C358.221 571.827 355.657 561.098 352.344 550.63C351.481 547.905 350.163 545.33 349.193 542.632C345.581 541.502 341.845 541.178 338.165 540.348C333.725 539.347 329.423 537.725 325.018 536.569C314.424 533.789 303.598 532.334 293.912 526.78C285.13 521.745 278.253 517.259 271.867 509.311C270.771 507.948 269.095 506.338 268.64 504.647C270.401 503.645 272.759 504.108 274.699 504.466C283.794 506.146 292.697 509.595 301.823 511.492C312.925 513.799 324.283 514.632 335.318 517.031C337.788 517.568 340.346 518.077 342.748 518.874C344.797 519.553 346.997 520.906 349.112 521.178C350.5 521.357 351.435 520.963 352.518 520.12C353.067 518.958 353.48 518.062 353.089 516.747C352.199 513.748 348.986 512.223 346.275 511.275C338.916 508.7 330.587 508.345 322.89 507.3C312.585 505.901 295.035 501.721 285.916 497.009C284.151 496.097 283.044 495.31 282.446 493.385C282.895 492.403 283.11 492.03 284.039 491.398C287.533 489.021 293.985 488.418 298.076 487.711C320.297 483.872 340.514 490.789 360.81 499.025C365.996 501.13 372.154 504.519 377.588 505.482C378.953 505.073 378.855 504.994 379.59 503.749C379.68 502.225 379.274 501.312 378.267 500.209C371.532 492.832 344.109 484.025 334.34 482.046C326.74 480.506 319.104 479.957 311.38 479.572C317.142 478.175 323.574 478.267 329.496 477.714Z"/>
		<path fill="#FEFEFE" d="M458.451 279.169C455.936 268.96 453.091 258.795 451.064 248.473C446.959 227.572 445.86 206.435 446.342 185.182C446.448 180.491 445.565 174.269 447.075 169.886C447.508 168.628 448.171 167.823 449.272 167.066C452.681 164.721 457.072 163.365 460.804 161.554C465.982 159.04 470.953 156.146 476.193 153.749C481.165 151.475 486.375 149.778 491.389 147.606C495.067 146.013 498.595 144.009 502.171 142.196C505.268 140.625 533.488 131.958 534.991 132.456L535.76 134.012C535.522 136.133 535.289 138.224 535.539 140.356C536.939 152.29 546.731 188.899 552.963 198.303C553.212 198.679 553.372 198.802 553.671 199.081C554.064 199.983 554.359 200.5 555.037 201.233C555.658 201.904 555.992 202.373 556.404 203.178C555.957 204.36 555.723 204.437 554.678 205.185C552.901 205.155 552.05 204.512 550.603 203.46C538.646 194.772 519.398 156.548 517.308 141.606L516.655 141.635C515.385 143.518 514.967 144.553 515.261 146.82C517.267 162.277 536.245 199.076 548.594 208.754C550.776 210.464 554.106 212.667 557.049 212.076C566.745 210.128 578.571 180.756 593.906 179.332C599.505 178.812 605.423 181.133 609.612 184.772Q610.138 185.238 610.64 185.73Q611.142 186.221 611.619 186.738Q612.095 187.254 612.545 187.794Q612.995 188.334 613.417 188.896Q613.839 189.458 614.232 190.04Q614.626 190.622 614.989 191.224Q615.353 191.825 615.685 192.444Q616.018 193.063 616.319 193.698Q616.62 194.333 616.889 194.982Q617.158 195.632 617.393 196.294Q617.629 196.956 617.831 197.629Q618.033 198.302 618.201 198.984Q618.369 199.666 618.502 200.356Q618.635 201.046 618.734 201.742Q618.832 202.438 618.895 203.138Q618.958 203.838 618.986 204.54C619.41 214.111 617.076 222.271 610.485 229.365C605.695 234.52 601.135 237.655 593.902 236.335C591.985 235.986 589.828 235.367 587.874 235.547C586.878 235.639 585.945 236.034 585.383 236.87C584.691 237.897 584.44 239.016 584.883 240.214C585.547 242.01 587.557 243.114 589.236 243.778C596.599 246.691 601.658 245.217 608.536 242.078C610.763 244.643 613.572 247.762 614.893 250.908C616.794 255.436 617.598 260.838 618.923 265.596C622.341 277.877 626.417 289.102 632.648 300.27C634.385 303.382 635.981 307.049 638.387 309.672C641.278 312.823 642.787 312.767 646.711 312.891C646.862 312.896 647.013 312.907 647.164 312.915L647.342 312.761C645.972 314.569 637.757 318.784 635.081 320.621C627.092 326.108 617.721 333.214 611.663 340.787C606.804 346.86 605.721 353.139 603.227 360.208C601.509 365.073 598.959 370.137 596.284 374.54C593.488 370.154 587.949 350.617 587.001 344.872C586.702 343.059 587.527 341.168 587.519 339.347C587.513 337.862 586.839 337.175 585.902 336.133C576.943 335.391 569.119 342.178 560.447 343.741C541.273 347.196 505.232 345.62 488.823 333.94C477.543 325.912 463.832 304.219 461.557 290.795L467.076 291.426Q467.928 291.116 468.763 290.761C474.076 288.534 479.61 285.34 481.75 279.637C482.315 278.13 482.327 277.187 481.694 275.725C477.109 273.613 473.763 279.539 469.78 280.973C467.546 281.778 464.841 281.671 462.488 281.742C461.119 280.934 459.79 280.027 458.451 279.169ZM454.19 217.304C451.832 223.457 451.099 230.646 453.922 236.811C455.708 240.713 458.381 243.021 462.375 244.479C464.887 243.585 466.323 242.848 467.434 240.33C469.797 234.972 468.634 226.54 466.471 221.2C465.487 218.771 463.679 215.465 460.983 214.641C460.394 214.461 459.542 214.492 458.948 214.474L454.19 217.304ZM492.455 238.501C494.94 237.129 496.027 235.148 496.755 232.431C498.26 226.813 497.424 218.225 494.415 213.251C493.455 211.665 491.951 209.881 490.055 209.458C489.305 209.29 488.56 209.368 487.808 209.451C483.957 212.459 482.479 215.277 481.951 220.212C481.417 225.199 482.41 231.471 485.641 235.466C486.856 236.967 488.318 238.318 490.313 238.51C491.01 238.577 491.761 238.524 492.455 238.501Z"/>
		<path fill="#231F20" d="M523.718 278.867C523.868 278.878 524.019 278.881 524.169 278.899C525.877 279.109 526.478 279.511 527.514 280.79C528.543 285.697 525.237 291.419 522.679 295.476C519.846 299.969 515.909 304.173 510.486 305.262C507.666 305.829 505.026 305.274 502.64 303.711C500.762 302.144 499.309 300.6 498.51 298.229C498.089 296.977 498.054 296.499 498.664 295.341C501.681 294.125 505.488 296.661 508.599 297.316L509.181 297.433C515.919 292.08 518.164 284.908 523.718 278.867Z"/>
		<path fill="#231F20" d="M591.597 198.533C593.333 198.513 594.989 198.775 596.628 199.374C599.911 200.575 606.117 205.802 607.35 209.066C607.822 210.318 607.645 210.947 607.172 212.143C602.509 213.146 598.324 205.729 593.936 205.299C593.56 207.227 595.726 211.23 596.209 213.307C596.569 214.853 596.563 216.543 596.614 218.126C596.435 219.632 596.128 221.081 595.127 222.288C594.259 223.335 593.496 223.457 592.215 223.638C591.368 223.1 591.086 223.067 590.605 222.131C589.284 219.559 590.653 216.921 591.494 214.397L589.232 207.57C588.03 208.619 586.369 210.42 584.781 210.839C583.507 211.176 583.104 210.908 582.092 210.264C581.577 208.84 581.684 207.878 582.251 206.502C584.118 201.974 587.297 200.207 591.597 198.533Z"/>
		<path fill="#231F20" d="M479.199 166.555C479.971 166.472 480.735 166.389 481.511 166.36C484.186 166.26 486.613 167.064 488.562 168.941C490.689 170.989 492.858 175.531 492.763 178.481C492.737 179.282 492.427 179.28 491.865 179.738C488.029 179.55 485.467 175.96 482.014 174.506C481.842 174.434 481.669 174.367 481.496 174.297L481.065 174.497C477.376 176.179 475.897 181.817 472.184 182.59C471.452 182.742 471.176 182.231 470.65 181.807C470.247 180.472 470.239 179.538 470.564 178.17C471.842 172.785 474.683 169.451 479.199 166.555Z"/>
		<path fill="#FEFEFE" d="M641.36 808.715C641.846 808.619 642.451 808.709 642.949 808.728C643.032 808.841 643.131 808.943 643.197 809.067C645.496 813.401 635.932 874.184 634.125 883.666C632.8 890.623 631.279 897.656 628.983 904.359Q582.763 921.415 535.645 935.809C524.466 939.232 513.427 942.931 502.079 945.795C489.521 948.965 476.749 951.185 464.044 953.661L463.421 952.943C463.473 948.577 464.836 943.896 465.645 939.6C466.609 934.482 467.361 929.324 468.161 924.178Q472.235 897.674 474.326 870.941Q474.945 862.324 475.122 853.686C475.219 847.455 473.772 834.159 475.774 828.869C479.069 827.918 486.755 828.192 490.591 827.83L535.514 823.182C552.59 821.346 569.58 818.583 586.59 816.197C604.847 813.637 623.116 811.43 641.36 808.715Z"/>
		<path fill="#FEFEFE" d="M314.204 779.083C329.978 787.311 347.051 791.989 363.806 797.7C377.101 802.232 390.181 807.46 403.542 811.787C411.88 814.487 420.469 816.612 428.935 818.891C437.771 821.27 446.941 822.968 455.877 824.979C459.676 825.833 464.287 826.339 467.733 828.148C468.436 833.014 468.004 838.392 468.012 843.315C468.038 859.4 467.353 874.787 465.564 890.775C457.375 889.499 449.236 887.537 441.144 885.749C432.147 883.76 423.033 881.957 414.14 879.561C400.619 875.917 387.169 871.328 373.953 866.705C367.634 864.495 361.45 861.809 355.119 859.537C346.54 856.457 337.982 852.694 329.606 849.091C326.024 847.55 322.096 845.411 318.382 844.353C317.402 844.074 316.961 844.045 315.998 844.296C315.175 845.153 315.104 844.912 315.069 846.196C319.344 851.538 350.884 863.144 359.249 867.001C366.734 870.675 374.615 874.515 382.446 877.359C407.817 886.575 438.49 891.104 465.274 895.334C462.201 914.209 459.776 932.77 455.281 951.418Q444.628 949.209 434.18 946.175Q423.732 943.141 413.553 939.3C397.767 933.389 382.902 925.771 367.834 918.294C346.768 907.84 320.938 895.612 303.301 880.019C306.655 857.842 308.795 835.245 310.836 812.907C311.853 801.774 312.061 790.041 314.204 779.083Z"/>
		<path fill="#FEFEFE" d="M544.516 66.6832C557.029 65.2189 570.549 68.1398 581.781 73.6807C599.749 82.5441 634.116 113.382 645.08 129.728C648.808 135.286 651.004 141.19 653.166 147.465L647.92 149.393C647.645 147.135 648.072 143.474 646.33 141.796C645.22 141.681 644.845 141.677 643.809 142.205C637.393 145.475 631.552 155.651 629.245 162.247C628.391 164.69 627.008 168.948 628.435 171.369C629.196 172.66 632.672 173.583 634.064 173.84C636.009 174.198 637.826 173.973 639.46 172.808C641.349 171.462 642.744 167.958 644.222 165.992C646.472 162.997 649.451 160.42 652.552 158.342C660.889 152.755 675.144 146.683 685.368 148.922C690.63 150.075 694.962 153.173 697.665 157.844C700.337 162.465 702.256 168.33 700.754 173.604C698.101 182.919 691.163 188.212 682.005 190.317C679.881 190.806 677.237 190.879 675.332 191.94C674.664 193.286 674.613 193.581 674.678 195.084C675.153 195.823 675.364 196.426 676.17 196.849C681.76 199.78 694.054 194.366 698.691 190.772C701.298 188.751 703.256 185.193 706.536 184.295C709.312 184.557 712.817 187.881 715.099 189.516C716.854 194.05 719.026 197.561 718.971 202.696C718.907 208.724 716.014 215.662 711.613 219.768C701.945 228.789 686.573 224.087 674.875 223.519C673.797 223.48 672.561 223.502 671.496 223.66C670.346 223.83 669.828 224.105 669.16 225.065L669.468 226.12C673.601 229.183 688.19 229.737 693.659 230.077C695.788 234.06 699.618 240.305 699.358 244.93C699.224 247.326 697.34 249.252 695.583 250.684C687.329 257.407 674.156 260.466 663.686 259.363C652.987 258.235 644.21 253.131 637.479 244.878C634.39 246.263 631.357 247.518 628.126 248.532C621.69 246.152 618.075 242.792 614.568 237.019C618.303 233.885 621.208 230.51 623.28 226.08C627.655 216.723 627.309 204.243 623.838 194.657C622.775 191.719 621.303 188.021 619.303 185.607C613.356 178.433 605.624 174.102 598.448 168.399C572.333 147.644 546.654 126.61 517.194 110.682C510.54 107.084 503.34 103.607 496.29 100.851C490.789 98.7002 485.021 97.0115 479.686 94.476L479.152 94.216C483.073 91.2733 487.594 88.8128 491.773 86.2337C510.029 74.9652 522.859 69.421 544.516 66.6832Z"/>
		<path fill="#FEFEFE" d="M288.709 395.143C288.954 395.188 289.176 395.321 289.39 395.449C294.9 398.732 305.334 432.766 308.324 440.835C312.396 451.824 317.026 462.647 320.47 473.855C315.84 474.552 311.323 475.823 306.665 476.311C301.078 460.777 296.243 445.121 289.994 429.812C288.805 426.897 288.001 423.396 286.589 420.645C286.13 419.751 286.013 419.625 285.056 419.331C277.403 416.982 264.136 420.335 255.937 421.039C240.411 422.373 224.134 421.969 208.952 425.889C199.95 428.213 191.637 432.46 183.371 436.6C183.837 445.304 189.013 457.095 191.833 465.615C203.708 501.491 217.443 536.657 230.059 572.258C234.708 585.374 238.699 598.823 243.187 612.013C245.515 618.857 247.97 627.377 251.849 633.466C254.772 638.055 258.855 639.97 264.032 640.95C267.147 641.541 270.095 641.64 273.253 641.276C286.014 639.802 298.758 635.909 311.3 633.095C318.999 631.368 327.102 630.396 334.641 628.138C338.34 627.029 341.664 625.707 344.87 623.527C345.919 621.605 346.696 619.507 347.543 617.488C345.408 602.476 332.833 578.079 326.968 563.295C324.522 557.651 322.714 551.652 320.376 545.937C322.294 546.213 324.475 546.427 326.283 547.153C328.778 548.154 329.863 551.903 330.849 554.213C336.206 566.774 339.794 580.093 344.497 592.911C350.876 610.296 358.164 627.377 364.675 644.719C361.913 647.858 359.181 649.701 355.288 651.119C348.645 653.539 340.845 654.032 333.841 654.99C325.353 656.152 316.851 657.563 308.322 658.35C296.075 659.48 283.776 659.886 271.511 660.709C265.845 661.089 259.981 662.345 254.325 662.207C251.617 662.141 248.342 661.828 245.926 660.492C239.616 657.003 234.819 638.362 232.832 631.425C230.611 623.672 228.504 615.801 225.974 608.146C219.182 587.6 210.757 567.3 202.989 547.095C193.942 523.562 185.266 499.937 175.792 476.577C172.404 468.221 168.993 459.787 165.28 451.571C161.155 442.442 156.718 433.804 153.598 424.231C154.446 422.221 155.494 420.308 156.505 418.377C172.151 411.947 188.977 405.907 205.602 402.592C212.377 401.242 219.327 400.6 226.172 399.667C232.573 398.794 239.053 397.693 245.508 397.402C259.936 396.753 274.512 398.225 288.709 395.143Z"/>
		<path fill="#FEFEFE" d="M416.122 425.711C419.952 427.768 422.829 438.031 424.88 442.113C430.412 453.128 436.604 463.852 441.894 474.982C448.785 489.483 454.417 504.655 459.992 519.7C462.527 526.541 465.188 533.372 467.301 540.357C469.802 548.625 471.59 557.436 475.276 565.247C460.078 568.185 444.309 567.975 429.14 571.309C421.157 550.155 415.54 528.36 406.987 507.387C403.824 499.605 399.476 491.829 393.144 486.179C379.481 473.986 350.404 470.923 332.593 471.876C329.761 466.091 328.83 458.254 325.07 453.14L324.525 453.454C324.903 459.446 328.654 466.692 330.931 472.247L324.807 473.205Q319.115 456.028 312.796 439.071C315.753 436.581 319.118 435.065 322.867 434.183C335.001 431.328 347.993 431.28 360.386 430.596C379.034 429.567 397.661 428.624 416.122 425.711Z"/>
		<path fill="#231F20" d="M397.227 441.738C401.326 444.428 403.548 462.393 409.168 465.375C410.783 465.334 411.683 465.165 413.162 464.518C417.103 459.863 408.595 452.054 409.941 445.301C412.717 450.036 415.295 461.779 420.218 464.209C421.091 464.64 420.931 464.438 421.545 465.108C422.029 465.635 421.859 466.01 421.862 466.682L421.144 467.356C411.223 466.951 401.107 468.337 391.24 469.308C382.985 470.12 374.779 470.664 366.493 471.019C362.279 471.199 357.916 471.606 353.709 471.27L353.738 470.985C356.224 469.86 358.752 469.81 361.437 469.432C367.775 468.289 374.168 467.733 380.579 467.203C377.859 461.931 375.847 455.206 374.445 449.442L374.895 448.523L374.38 448.405C374.642 447.319 374.341 447.753 375.329 447.136L375.928 447.722C376.363 450 380.246 464.407 381.295 465.362C383.806 467.648 389.098 466.574 392.197 466.367C389.043 458.525 386.134 448.819 386.637 440.329C388.86 448.964 391.322 457.764 394.611 466.054C397.924 465.496 401.324 465.529 404.675 465.43C401.938 458.257 397.352 449.404 397.227 441.738Z"/>
		<path fill="#231F20" d="M439.37 527.624C441.486 527.418 442.91 527.317 444.72 528.635C445.627 529.295 445.411 528.907 445.564 529.835C443.508 532.428 435.169 532.907 431.743 534.123L430.977 534.399C428.942 534.598 426.651 535.12 424.83 534.018C424.443 532.89 424.479 532.909 424.916 531.792C428.427 528.764 434.901 528.431 439.37 527.624Z"/>
		<path fill="#231F20" d="M432.452 512.282C434.053 512.106 435.497 512.028 437.105 512.152C438.28 512.902 438.485 513.015 439.091 514.254L438.65 515.181C437.669 515.753 436.95 516.088 435.823 516.263C433.437 516.634 431.078 517.135 428.711 517.611C427.571 517.626 426.383 517.682 425.249 517.563C423.961 517.428 423.197 517.181 422.346 516.221C422.679 514.427 423.549 513.872 424.779 512.559Q428.617 512.457 432.452 512.282Z"/>
		<path fill="#231F20" d="M421.086 496.121C424.348 495.563 430.259 495.343 432.928 497.538C433.81 498.263 433.919 498.652 433.867 499.722C433.018 500.378 432.473 500.579 431.423 500.786C428.576 501.323 424.229 501.828 421.447 501.086C420.269 500.771 419.905 500.428 419.347 499.386C419.594 497.779 420.044 497.286 421.086 496.121Z"/>
		<path fill="#231F20" d="M447.189 538.148C448.097 538.074 448.087 538.202 448.84 538.628L448.866 539.655C446.972 542.167 438.101 543.476 434.906 544.489C433.739 544.145 433.73 544.119 433.017 543.129C435.516 540.237 443.454 538.662 447.189 538.148Z"/>
		<path fill="#FEFEFE" d="M641.485 354.89L641.981 355.019L642.236 355.668C634.382 378.018 632.238 398.93 629.25 422.178C628.292 429.629 626.657 437.038 625.957 444.508C625.119 453.441 625.555 468.077 623.747 475.89C621.991 483.476 615.258 499.112 611.339 505.859C608.307 511.079 604.116 515.701 598.027 517.086C595.07 517.758 591.716 517.559 588.702 517.544C579.377 517.499 572.794 516.748 564.807 511.576C564.024 509.461 563.142 507.334 562.946 505.069C562.374 498.451 563.504 491.735 564.044 485.149C566.015 461.1 570.26 437.741 573.753 413.903C575.46 402.251 576.519 390.373 577.528 378.642C581.415 378.539 586.399 377.746 590.203 378.324C592.881 378.731 595.662 381.982 598.467 381.132C602.872 379.797 605.633 370.567 607.314 366.599C619.933 365.835 630.673 361.355 641.485 354.89ZM588.431 429.492C588.258 432.807 588.118 436.117 590.418 438.837C591.96 440.661 594.426 441.431 596.735 441.521C600.062 440.183 602.983 437.767 604.424 434.409C605.315 432.331 605.553 429.943 604.65 427.824C603.945 426.168 602.258 424.459 600.578 423.777C599.381 423.291 597.936 423.182 596.661 423.013C592.76 424.309 590.982 426.45 588.431 429.492Z"/>
		<path fill="#231F20" d="M599.549 387.14C600.78 387.274 602.161 387.349 603.298 387.863C605.002 388.634 606.501 390.218 607.106 391.987C607.877 394.24 607.432 396.832 606.416 398.936C604.911 402.05 602.382 404.365 599.102 405.413C597.132 405.393 595.265 405.45 593.538 404.344C591.899 403.296 590.849 401.625 590.472 399.732C589.91 396.909 590.802 393.918 592.387 391.574C594.264 388.797 596.355 387.798 599.549 387.14Z"/>
		<path fill="#FEFEFE" d="M504.064 564.217C513.439 567.94 525.465 580.281 536.011 585.885C536.588 590.24 536.6 594.703 537.013 599.086C538.062 610.209 539.334 621.601 541.271 632.604C542.593 640.113 543.906 647.809 545.701 655.22C547.146 661.188 549.467 667.319 549.846 673.462C540.898 668.899 532.346 663.632 523.419 659.035C515.006 654.933 507.172 650.089 499.196 645.219C485.889 637.095 473.338 629.133 461.533 618.882C464.226 615.225 467.84 612.017 470.959 608.703C474.02 605.448 476.832 601.984 479.645 598.516C483.924 593.238 488.33 587.99 492.191 582.394C496.303 576.433 499.875 570.135 504.064 564.217Z"/>
		<path fill="#FEFEFE" d="M147.54 467.094C154.849 466.704 161.825 472.851 168.282 475.822Q174.198 488.723 179.271 501.978C182.257 509.98 184.796 518.148 187.798 526.138C190.518 533.377 193.707 540.446 196.484 547.668C200.258 557.486 203.698 567.502 207.304 577.39C211.466 588.804 214.679 600.924 219.553 612.013C217.719 611.295 215.461 610.567 213.954 609.296C210.596 606.463 211.082 601.334 210.893 597.377C210.094 589.352 207.315 581.747 204.115 574.392C199.399 563.554 193.444 552.736 185.645 543.801C179.927 537.251 173.44 530.865 166.924 525.099C157.943 517.151 148.434 509.84 139.372 501.984C135.913 498.984 132.127 496.05 129.106 492.614C127.522 490.813 125.519 488.234 125.265 485.76C124.987 483.053 126.622 480.44 128.25 478.431C133.143 472.39 139.771 467.997 147.54 467.094Z"/>
		<path fill="#FEFEFE" d="M559.72 441.377C560.631 442.609 557.925 449.974 557.417 451.745Q553.103 467.257 547.631 482.399C543.047 495.147 537.537 508.039 535.393 521.493C533.201 535.256 534.746 561.78 535.261 576.164C528.938 571.278 522.794 566.169 516.396 561.38C512.214 558.552 506.364 554.72 501.431 553.466C500.554 553.243 500.165 553.136 499.449 552.621C503.281 545.975 509.04 539.766 513.693 533.62C518.057 527.855 521.96 521.451 525.529 515.16C529.791 507.647 532.831 499.593 536.414 491.751C544.093 474.948 551.643 457.987 559.72 441.377Z"/>
		<path fill="#FEFEFE" d="M535.906 134.044L536.834 133.287C549.151 141.201 570.019 154.696 579.885 164.779C579.968 168.451 580.146 172.058 580.529 175.712C576.692 180.105 572.112 183.671 568.442 188.222C565.31 175.526 562.303 162.078 557.617 149.879L556.943 149.616C555.074 153.134 564.276 183.828 566.036 189.459Q566.22 190.033 566.417 190.603C564.623 193.006 560.72 199.448 558.029 200.174L557.347 199.541C550.201 185.583 544.981 169.189 540.928 154.013C539.17 147.43 538.307 140.431 535.906 134.044Z"/>
		<path fill="#FEFEFE" d="M471.307 100.912C476.113 104.502 485.807 105.073 488.18 108.078C489.095 109.235 489.232 110.688 489.01 112.095C488.532 115.13 487.25 118.286 486.405 121.262C484.178 129.104 481.996 137.149 481.387 145.298C476.908 148.648 470.46 150.939 465.225 152.841C467.023 141.892 469.378 130.471 472.397 119.796C473.51 115.86 477.079 109.811 476.784 105.921L476.111 105.372C474.638 105.887 474.549 106.05 473.601 107.309C466.769 122.369 464.892 138.895 460.208 154.584C456.29 156.7 452.146 158.279 448.001 159.882C448.996 146.522 452.729 136.176 457.211 123.824C458.862 119.274 460.264 114.354 462.787 110.204C464.983 106.592 468.174 103.692 471.307 100.912Z"/>
		<path fill="#FEFEFE" d="M336.323 552.391C339.253 552.53 342.102 552.495 345.03 552.336C346.468 554.838 347.494 557.458 348.457 560.171C352.451 571.43 355.525 583 359.289 594.337C361.273 600.312 369.255 620.082 369.551 624.24L368.858 624.861C366.959 625.607 365.523 626.402 363.506 625.788C357.219 617.637 350.29 593.525 346.585 583.113C343.266 573.784 338.094 562.031 336.323 552.391Z"/>
		<path fill="#FEFEFE" d="M543.301 777.522C546.621 777.17 562.751 780.592 565.349 782.249C566.017 785.836 565.894 789.472 566.516 793.084L566.643 793.794C562.361 795.004 557.764 795.611 553.386 796.445C546.842 797.81 540.277 799.169 534.011 801.541C536.175 793.444 539.618 785.051 543.301 777.522Z"/>
		<path fill="#FEFEFE" d="M493.486 109.643C498.367 111.603 503.129 113.972 507.934 116.121Q505.33 126.102 502.472 136.014C500.763 137.318 498.809 138.353 496.961 139.449C493.507 141.416 490.151 143.028 486.431 144.431C486.891 132.749 490.816 120.986 493.486 109.643Z"/>
		<path fill="#FEFEFE" d="M403.374 735.556L404.199 735.681C405.779 737.752 405.842 744.45 406.187 747.177Q393.688 749.425 381.129 751.302C380.677 751.334 381.004 751.338 380.196 750.996C380.032 748.78 381.904 745.08 382.995 743.186C389.097 732.604 393.901 738.2 402.679 735.756L403.374 735.556Z"/>
		<path fill="#FEFEFE" d="M511.733 117.743C517.028 121.939 523.904 124.244 529.362 128.584C526.502 129.66 523.533 130.526 520.624 131.469C516.423 132.53 512.146 134.575 507.941 135.877C509.523 129.916 511.06 123.886 511.733 117.743Z"/>
		<path fill="#FEFEFE" d="M557.345 767.292C559.942 767.036 562.68 766.859 565.254 767.379C569.976 768.334 572.84 771.688 575.399 775.471C575.898 779.946 576.27 784.787 576.113 789.287C576.041 791.33 575.906 794.129 574.367 795.578C573.262 795.44 572.782 795.091 571.906 794.422C572.56 789.666 572.706 784.643 571.342 779.995C566.799 764.52 555.777 773.077 550.323 770.214L550.141 769.241L550.861 768.296C552.864 767.208 555.116 767.371 557.345 767.292Z"/>
		<path fill="#FEFEFE" d="M706.746 721.207C708.311 721.016 709.409 720.625 710.862 721.285C710.971 721.463 711.074 721.644 711.187 721.819C711.404 722.155 711.941 722.886 712.085 723.259C712.419 724.123 711.951 724.643 711.544 725.347C706.238 727.963 694.904 727.864 688.833 728.114L683.419 728.452L683.234 722.257C691.019 722.509 698.965 721.635 706.746 721.207Z"/>
		<path fill="#FEFEFE" d="M743.684 715.573L744.957 715.802C745.899 717.38 745.837 719.368 745.968 721.167C737.792 722.781 729.471 724.325 721.139 724.757C720.437 724.852 720.189 724.717 719.539 724.478C719.776 722.794 720.151 721.492 720.818 719.931C725.661 718.082 737.183 717.394 743.684 715.573Z"/>
		<path fill="#FEFEFE" d="M778.136 707.587C778.302 707.563 778.467 707.502 778.634 707.516C779.963 707.629 781.111 709.743 781.891 710.762C774.596 713.47 767.122 715.386 759.619 717.414C758.353 717.674 757.856 718.082 756.714 717.355C756.615 716.236 756.316 714.83 756.809 713.788C757.558 712.203 775.381 708.279 778.136 707.587Z"/>
		<path fill="#231F20" d="M802.184 242.459C807.753 243.148 819.12 249.28 825.012 251.636Q838.859 257.024 852.846 262.038C857.871 263.842 872.416 267.213 875.652 269.729L875.335 270.686C874.844 270.653 874.353 270.627 873.865 270.573C862.593 269.333 807.481 254.05 801.179 246.236C800.964 244.7 801.525 243.785 802.184 242.459Z"/>
		<path fill="#231F20" d="M810.14 270.271C815.219 271.324 820.309 273.52 825.405 274.791C830.508 276.062 836.001 276.533 840.991 277.965C842.276 278.333 842.461 278.35 843.054 279.48C842.229 281 841.455 281.293 840.011 282.201C838.869 282.351 839.325 282.371 838.213 282.21C832.06 281.317 811.442 277.871 808.171 273.376C808.388 271.815 809.086 271.407 810.14 270.271Z"/>
	</g>
</svg>
