<svg width="24" height="24" viewBox="0 0 24 24" fill="none" xmlns="http://www.w3.org/2000/svg">
<g clip-path="url(#clip0_1066_8869)">
<path d="M3.0816 0H20.9198C22.6146 0 24 1.38592 24 3.08064V20.9189C24 22.6131 22.6146 23.9981 20.9198 23.9981H3.0816C1.38688 23.9981 0 22.613 0 20.9189V3.08064C0 1.38592 1.38688 0 3.0816 0ZM17.4837 2.66536C16.8886 2.66536 16.4033 3.15264 16.4033 3.74736V6.33248C16.4033 6.92744 16.8886 7.4136 17.4837 7.4136H20.1959C20.79 7.4136 21.2764 6.92744 21.2764 6.33248V3.74736C21.2764 3.15264 20.79 2.66536 20.1959 2.66536H17.4837ZM21.2867 10.1485H19.175C19.3753 10.8025 19.4838 11.4922 19.4838 12.2092C19.4838 16.1998 16.1426 19.4364 12.0226 19.4364C7.9036 19.4364 4.56224 16.1998 4.56224 12.2092C4.56224 11.4922 4.67184 10.8025 4.87112 10.1485H2.668V20.287C2.668 20.8121 3.09672 21.2392 3.62128 21.2392H20.3338C20.8589 21.2392 21.2867 20.8121 21.2867 20.287V10.1485ZM12.0226 7.27728C9.36184 7.27728 7.20344 9.36752 7.20344 11.9483C7.20344 14.5265 9.36184 16.6183 12.0226 16.6183C14.6849 16.6183 16.8434 14.5265 16.8434 11.9483C16.8434 9.36744 14.6849 7.27728 12.0226 7.27728Z" fill="#C4283C"/>
</g>
<defs>
<clipPath id="clip0_1066_8869">
<rect width="24" height="23.9981" fill="white"/>
</clipPath>
</defs>
</svg>
