<svg width="24" height="24" viewBox="0 0 24 24" fill="none" xmlns="http://www.w3.org/2000/svg">
<path d="M2 4.49783V19.3069C2 20.7047 3.1 21.8047 4.49783 21.8047H19.3069C19.991 21.8047 20.6447 21.4774 21.0615 21.0615C21.5078 20.6152 21.8047 20.05 21.8047 19.3069V4.49783C21.8047 3.1 20.7047 2 19.3069 2H4.49783C3.75467 2 3.18944 2.29784 2.74316 2.74316C2.32638 3.15994 2 3.81366 2 4.49783ZM4.67672 6.45993C4.67672 5.50838 5.45033 4.67577 6.40189 4.67577C7.38294 4.67577 8.18605 5.50838 8.18605 6.45993C8.18605 7.44098 7.38294 8.2146 6.40189 8.2146C5.45033 8.2146 4.67672 7.44098 4.67672 6.45993ZM9.46399 18.6817V9.61243C9.46399 9.40404 9.67238 9.2261 9.82082 9.2261H12.3481C12.705 9.2261 12.705 9.64288 12.705 9.91027C13.4186 9.1966 14.3407 9.01771 15.2923 9.01771C17.6121 9.01771 19.0985 10.1177 19.0985 12.5565V18.6826C19.0985 18.891 18.9196 19.069 18.7416 19.069H16.1249C15.9165 19.069 15.768 18.8606 15.768 18.6826V13.1513C15.768 12.2292 15.5006 11.7239 14.4596 11.7239C13.1513 11.7239 12.8239 12.586 12.8239 13.746V18.6826C12.8239 18.891 12.6155 19.069 12.4071 19.069H9.81987C9.67143 19.069 9.46304 18.8606 9.46304 18.6826L9.46399 18.6817ZM4.73572 18.6817V9.61243C4.73572 9.40404 4.94411 9.2261 5.09255 9.2261H7.67982C7.91771 9.2261 8.06615 9.37454 8.06615 9.61243V18.6817C8.06615 18.8901 7.88726 19.068 7.67982 19.068H5.09255C4.91366 19.068 4.73572 18.8596 4.73572 18.6817Z" fill="#C4283C"/>
</svg>
