<svg xmlns="http://www.w3.org/2000/svg" width="32" height="32" viewBox="0 0 24 24" fill="none">
  <path d="M18 4H6C4.89 4 4 4.89 4 6V18C4 19.11 4.89 20 6 20H18C19.11 20 20 19.11 20 18V6C20 4.89 19.11 4 18 4ZM18 18H6V6H18V18ZM15 12C15 10.34 13.66 9 12 9C10.34 9 9 10.34 9 12C9 13.66 10.34 15 12 15C13.66 15 15 13.66 15 12Z" fill="#C4283C"/>
  <path d="M12 13.5C12.8284 13.5 13.5 12.8284 13.5 12C13.5 11.1716 12.8284 10.5 12 10.5C11.1716 10.5 10.5 11.1716 10.5 12C10.5 12.8284 11.1716 13.5 12 13.5Z" fill="#C4283C"/>
  <path d="M7 7H17V8.5H7V7Z" fill="#C4283C"/>
  <path d="M7 15.5H17V17H7V15.5Z" fill="#C4283C"/>
</svg> 