<svg xmlns="http://www.w3.org/2000/svg" width="32" height="32" viewBox="0 0 24 24" fill="none">
  <path d="M12 6C8.62 6 6 8.62 6 12C6 15.38 8.62 18 12 18C15.38 18 18 15.38 18 12C18 8.62 15.38 6 12 6ZM12 16C9.76 16 8 14.24 8 12C8 9.76 9.76 8 12 8C14.24 8 16 9.76 16 12C16 14.24 14.24 16 12 16Z" fill="#C4283C"/>
  <path d="M12 2C6.48 2 2 6.48 2 12C2 17.52 6.48 22 12 22C17.52 22 22 17.52 22 12C22 6.48 17.52 2 12 2ZM12 20C7.58 20 4 16.42 4 12C4 7.58 7.58 4 12 4C16.42 4 20 7.58 20 12C20 16.42 16.42 20 12 20Z" fill="#C4283C"/>
  <circle cx="12" cy="12" r="2" fill="#C4283C"/>
</svg> 