<svg xmlns="http://www.w3.org/2000/svg" width="32" height="32" viewBox="0 0 24 24" fill="none">
  <path d="M12 4V1L8 5L12 9V6C15.31 6 18 8.69 18 12C18 15.31 15.31 18 12 18C8.69 18 6 15.31 6 12H4C4 16.42 7.58 20 12 20C16.42 20 20 16.42 20 12C20 7.58 16.42 4 12 4Z" fill="#C4283C"/>
  <path d="M10.9 12.5C10.9 11.6 11.6 10.9 12.5 10.9C13.4 10.9 14.1 11.6 14.1 12.5C14.1 13.4 13.4 14.1 12.5 14.1C11.6 14.1 10.9 13.4 10.9 12.5Z" fill="#C4283C"/>
  <path d="M9 12.5C9 13.9 10.1 15 11.5 15C12.9 15 14 13.9 14 12.5C14 11.1 12.9 10 11.5 10C10.1 10 9 11.1 9 12.5Z" fill="#C4283C"/>
</svg> 